<svg xmlns="http://www.w3.org/2000/svg" viewBox="0 0 200 200" width="200" height="200">
  <!-- Background circle -->
  <circle cx="100" cy="100" r="90" fill="#ea580c" stroke="#d1460c" stroke-width="4"/>
  
  <!-- Inner circle for depth -->
  <circle cx="100" cy="100" r="75" fill="#f97316" opacity="0.9"/>
  
  <!-- Dumbbell design -->
  <!-- Left weight -->
  <rect x="30" y="85" width="25" height="30" rx="5" fill="#ffffff"/>
  <rect x="25" y="80" width="35" height="40" rx="8" fill="#ffffff" opacity="0.8"/>
  
  <!-- Right weight -->
  <rect x="145" y="85" width="25" height="30" rx="5" fill="#ffffff"/>
  <rect x="140" y="80" width="35" height="40" rx="8" fill="#ffffff" opacity="0.8"/>
  
  <!-- Center bar -->
  <rect x="55" y="95" width="90" height="10" rx="5" fill="#ffffff"/>
  
  <!-- Center grip -->
  <rect x="85" y="90" width="30" height="20" rx="3" fill="#ffffff"/>
  <rect x="87" y="92" width="4" height="16" fill="#ea580c" opacity="0.6"/>
  <rect x="93" y="92" width="4" height="16" fill="#ea580c" opacity="0.6"/>
  <rect x="99" y="92" width="4" height="16" fill="#ea580c" opacity="0.6"/>
  <rect x="105" y="92" width="4" height="16" fill="#ea580c" opacity="0.6"/>
  <rect x="111" y="92" width="4" height="16" fill="#ea580c" opacity="0.6"/>
  
  <!-- Letter F and T integrated into design -->
  <!-- F -->
  <path d="M 70 130 L 70 160 L 75 160 L 75 147 L 85 147 L 85 142 L 75 142 L 75 135 L 88 135 L 88 130 Z" fill="#ffffff" font-weight="bold"/>
  
  <!-- T -->
  <path d="M 110 130 L 130 130 L 130 135 L 125 135 L 125 160 L 120 160 L 120 135 L 115 135 L 115 160 L 110 160 L 110 135 L 105 135 L 105 130 Z" fill="#ffffff" font-weight="bold"/>
  
  <!-- Small progress bars under letters for "tracking" theme -->
  <rect x="70" y="165" width="18" height="3" rx="1.5" fill="#ffffff" opacity="0.7"/>
  <rect x="70" y="170" width="12" height="3" rx="1.5" fill="#ffffff" opacity="0.5"/>
  <rect x="70" y="175" width="15" height="3" rx="1.5" fill="#ffffff" opacity="0.6"/>
  
  <rect x="110" y="165" width="18" height="3" rx="1.5" fill="#ffffff" opacity="0.7"/>
  <rect x="110" y="170" width="14" height="3" rx="1.5" fill="#ffffff" opacity="0.5"/>
  <rect x="110" y="175" width="16" height="3" rx="1.5" fill="#ffffff" opacity="0.6"/>
</svg>
