<svg xmlns="http://www.w3.org/2000/svg" viewBox="430 520 165 370">
	<style>.s0 { fill: #666 }</style>

	<!-- BODY: neck/head area -->
	<g id="body">
		<!-- Right neck/shoulder connector -->
		<path class="s0" d="m477.86 640.5l-1.48 4.3c-0.16 0.46 0.36 0.86 0.76 0.6l2.66-1.72c0.21-0.14 0.29-0.41 0.19-0.64l-1.18-2.58c-0.2-0.42-0.8-0.39-0.95 0.04z"/>
		<path class="s0" d="m480.71 646.08l0.58 1.4c0.13 0.32 0.1 0.68-0.09 0.96-0.73 1.11-2.66 4.08-4.26 6.8-0.53 0.91-1.93 0.53-1.93-0.53v-3.27q0-0.23 0.1-0.45c0.36-0.73 1.64-3.18 3.95-5.3 0.53-0.48 1.38-0.28 1.65 0.39z"/>
		<path class="s0" d="m484.13 651.7l1.9 3.16c0.89 1.48 0.92 3.37-0.1 4.76-0.65 0.89-1.67 1.57-3.28 1.38-1.58-0.18-3.19 0.24-4.57 0.82-1.29 0.54-2.57-0.81-1.98-2.07 1.08-2.33 2.65-5.31 4.73-8.18 0.83-1.15 2.56-1.08 3.3 0.13z"/>
		<!-- Left neck/shoulder connector -->
		<path class="s0" d="m544.84 640.5l1.47 4.3c0.16 0.46-0.35 0.86-0.76 0.6l-2.66-1.72c-0.21-0.14-0.29-0.41-0.18-0.64l1.18-2.58c0.19-0.42 0.8-0.39 0.95 0.04z"/>
		<path class="s0" d="m541.98 646.08l-0.57 1.4c-0.13 0.32-0.1 0.68 0.09 0.96 0.73 1.11 2.66 4.08 4.25 6.8 0.54 0.91 1.93 0.53 1.93-0.53v-3.27q0-0.23-0.1-0.45c-0.35-0.73-1.64-3.18-3.94-5.3-0.53-0.48-1.38-0.28-1.66 0.39z"/>
		<path class="s0" d="m538.57 651.7l-1.91 3.16c-0.88 1.48-0.91 3.37 0.1 4.76 0.65 0.89 1.67 1.57 3.29 1.38 1.57-0.18 3.19 0.24 4.57 0.82 1.28 0.54 2.56-0.81 1.98-2.07-1.08-2.33-2.66-5.31-4.73-8.18-0.83-1.15-2.57-1.08-3.3 0.13z"/>
	</g>

	<!-- TRAPS (upper back, near spine) -->
	<g id="traps">
		<path class="s0" d="m503.32 528.65c-0.05-0.44-0.67-0.48-0.78-0.05-0.68 2.82-2.88 7.62-5.17 11.04-0.55 0.83 0.5 1.8 1.28 1.19 2.66-2.05 5.45-5.78 4.67-12.18z"/>
		<path class="s0" d="m519.37 528.65c0.05-0.44 0.68-0.48 0.78-0.05 0.69 2.82 2.88 7.62 5.17 11.04 0.56 0.83-0.49 1.8-1.28 1.19-2.66-2.05-5.45-5.78-4.67-12.18z"/>
		<!-- Right upper trap / rhomboid area -->
		<path class="s0" d="m474.47 558.97c-1.29-0.49-2.78-1.18-3.72-2.02 0 0-5.55-3.52-9.93-0.75 0 0-7.31 4.61-10.15 14.02-0.83 2.74-1.1 5.61-0.98 8.46l0.42 9.34c0.06 1.51 1.91 2.19 2.94 1.1l8.57-9.13c1.4-1.48 2.35-3.33 2.71-5.34 0.26-1.45 0.75-3.29 1.64-5.05 0.7-1.38 1.73-2.56 2.95-3.52l5.92-4.65c0.87-0.69 0.67-2.07-0.37-2.46z"/>
		<!-- Left upper trap / rhomboid area -->
		<path class="s0" d="m548.22 558.97c1.29-0.49 2.79-1.18 3.72-2.02 0 0 5.55-3.52 9.93-0.75 0 0 7.32 4.61 10.16 14.02 0.82 2.74 1.1 5.61 0.97 8.46l-0.41 9.34c-0.07 1.51-1.91 2.19-2.94 1.1l-8.58-9.13c-1.39-1.48-2.34-3.33-2.71-5.34-0.26-1.45-0.74-3.29-1.63-5.05-0.7-1.38-1.73-2.56-2.95-3.52l-5.92-4.65c-0.88-0.69-0.67-2.07 0.36-2.46z"/>
	</g>

	<!-- LATS (large mid-back muscles + spinal erectors) -->
	<g id="lats">
		<!-- Right lat / upper back -->
		<path class="s0" d="m509.54 614.07v-9.16-76.79c0-1.57-2.14-2.07-2.8-0.65-0.51 1.08-0.93 2.29-1.09 3.56-0.18 1.33-0.43 2.66-0.9 3.92-1.37 3.7-4.76 9.96-12.31 11.4 0 0-6.81 1.44-11.43 3.03-1.74 0.6-2.28 2.8-0.98 4.11 3.26 3.29 8.38 9.22 8.26 13.94 0 0 1.82 16.24 8.89 27.38 1.2 1.9 2.37 3.8 3.42 5.79 1.92 3.64 4.87 9.36 6.9 13.91 0.47 1.05 2.04 0.71 2.04-0.44z"/>
		<path class="s0" d="m509.54 624.28v47.41c0 1.27-1.42 1.99-2.46 1.26-1.55-1.09-3.37-2.82-3.93-5.15-0.76-3.17-7.36-6.42-10.84-7.94-0.95-0.41-1.19-1.64-0.46-2.39 1.51-1.56 3.53-4.15 3.53-6.88 0 0 0.1-8.73 2.24-14.58 0 0 2.05-8.65 9.8-12.98 0.95-0.53 2.12 0.16 2.12 1.25z"/>
		<path class="s0" d="m494.48 593.2c2.43 3.8 6.28 10.29 8.45 16.32 1.34 3.74 1 7.88-0.93 11.35-1.36 2.46-3.12 5.76-4.82 9.37-3.25 6.9-4.9 14.45-4.9 22.08 0 0.52-0.16 1.02-0.46 1.44-0.95 1.37-2.95 1.45-4.01 0.16-2.14-2.58-5.19-7.01-6.17-12.1q-1.04-5.42-2.66-10.7l-8.02-26.25c-0.77-2.49-1.15-5.08-1.15-7.68 0-2.21 1.93-3.92 4.12-3.63 4.23 0.57 10.86 0.88 15.56-1.6 1.75-0.93 3.92-0.43 4.99 1.24z"/>
		<!-- Left lat / upper back -->
		<path class="s0" d="m513.15 614.07v-9.16-76.79c0-1.57 2.14-2.07 2.81-0.65 0.5 1.08 0.92 2.29 1.09 3.56 0.18 1.33 0.43 2.66 0.89 3.92 1.37 3.7 4.77 9.96 12.32 11.4 0 0 6.81 1.44 11.42 3.03 1.75 0.6 2.28 2.8 0.98 4.11-3.25 3.29-8.37 9.22-8.26 13.94 0 0-1.82 16.24-8.88 27.38-1.2 1.9-2.38 3.8-3.42 5.79-1.93 3.64-4.88 9.36-6.91 13.91-0.47 1.05-2.04 0.71-2.04-0.44z"/>
		<path class="s0" d="m513.15 624.28v47.41c0 1.27 1.43 1.99 2.47 1.26 1.55-1.09 3.37-2.82 3.93-5.15 0.76-3.17 7.36-6.42 10.83-7.94 0.95-0.41 1.19-1.64 0.47-2.39-1.52-1.56-3.53-4.15-3.53-6.88 0 0-0.11-8.73-2.25-14.58 0 0-2.05-8.65-9.79-12.98-0.95-0.53-2.13 0.16-2.13 1.25z"/>
		<path class="s0" d="m528.22 593.2c-2.44 3.8-6.29 10.29-8.46 16.32-1.34 3.74-1 7.88 0.93 11.35 1.37 2.46 3.12 5.76 4.82 9.37 3.25 6.9 4.91 14.45 4.91 22.08 0 0.52 0.16 1.02 0.45 1.44 0.96 1.37 2.95 1.45 4.02 0.16 2.13-2.58 5.18-7.01 6.17-12.1q1.04-5.42 2.65-10.7l8.03-26.25c0.76-2.49 1.15-5.08 1.15-7.68 0-2.21-1.94-3.92-4.12-3.63-4.24 0.57-10.86 0.88-15.56-1.6-1.76-0.93-3.92-0.43-4.99 1.24z"/>
	</g>

	<!-- TRICEPS (arm muscles) -->
	<g id="triceps">
		<!-- Right tricep area -->
		<path class="s0" d="m473.74 565.29l4.07-2.76q0.22-0.14 0.45-0.26c1.1-0.56 5.17-2.3 7.04 1.65 0.26 0.56 0.42 1.16 0.52 1.76l2.3 13.03c0 0 0.47 3.87 1.97 6.41 0.45 0.76-0.12 1.73-1 1.68-1.52-0.09-3.95-0.7-7.53-2.85-7.03-4.2-8.93-10.25-8.93-10.25 0 0-0.26-0.64-0.67-1.46-1.22-2.45-0.48-5.41 1.78-6.95z"/>
		<path class="s0" d="m468.43 570.51c0.62 0.97 1.54 2.46 2.25 3.71 0.27 0.48-0.27 1.01-0.75 0.74l-2.36-1.38c-0.58-0.34-0.92-0.98-0.86-1.64 0.04-0.4 0.12-0.86 0.28-1.29 0.23-0.62 1.09-0.71 1.44-0.14z"/>
		<path class="s0" d="m467.01 579.31c-0.45-2.13 1.96-3.69 3.7-2.38 1.75 1.33 3.8 3.2 5.64 5.7 2.17 2.94 5.37 4.49 8.03 5.31 1.77 0.55 1.74 3.02-0.03 3.53-1.94 0.56-4.47 0.84-7.6 0.3-2.83-0.49-5.3-2.18-6.73-4.67-1.12-1.95-2.35-4.63-3.01-7.79z"/>
		<path class="s0" d="m462.81 583.79c-0.69 1.2-1.51 2.68-2.31 4.27-2.1 4.15-3.41 8.67-3.85 13.31l-1.66 17.15q-0.21 2.17-0.21 4.35v5.18q0 1.28 0.55 2.44c0.37 0.77 1.36 1.02 2.05 0.51 1.5-1.09 2.68-2.57 3.43-4.27l4.28-9.83c1.3-2.98 2.07-6.17 2.27-9.42 0.38-6.26 0.62-16.8-1.36-23.33-0.44-1.46-2.43-1.69-3.19-0.36z"/>
		<path class="s0" d="m455.8 589.23c-2.42 2.13-5.57 6.43-5.76 14.48-0.04 1.6-0.07 3.2-0.18 4.8-0.21 3.27-0.49 8.85-0.26 12.98 0.04 0.78 1.14 0.87 1.32 0.12 0.9-3.67 2.18-9.62 2.48-14.52 0 0 1.32-10.68 3.76-16.87 0.33-0.85-0.68-1.59-1.36-0.99z"/>
		<!-- Left tricep area -->
		<path class="s0" d="m548.95 565.29l-4.07-2.76q-0.21-0.14-0.45-0.26c-1.09-0.56-5.17-2.3-7.04 1.65-0.26 0.56-0.41 1.16-0.52 1.76l-2.29 13.03c0 0-0.48 3.87-1.98 6.41-0.45 0.76 0.12 1.73 1.01 1.68 1.52-0.09 3.95-0.7 7.53-2.85 7.03-4.2 8.93-10.25 8.93-10.25 0 0 0.25-0.64 0.66-1.46 1.22-2.45 0.48-5.41-1.78-6.95z"/>
		<path class="s0" d="m554.26 570.51c-0.61 0.97-1.54 2.46-2.24 3.71-0.27 0.48 0.27 1.01 0.74 0.74l2.37-1.38c0.57-0.34 0.91-0.98 0.85-1.64-0.04-0.4-0.12-0.86-0.27-1.29-0.23-0.62-1.09-0.71-1.45-0.14z"/>
		<path class="s0" d="m555.69 579.31c0.45-2.13-1.97-3.69-3.7-2.38-1.75 1.33-3.8 3.2-5.65 5.7-2.17 2.94-5.37 4.49-8.03 5.31-1.76 0.55-1.74 3.02 0.03 3.53 1.95 0.56 4.48 0.84 7.61 0.3 2.83-0.49 5.29-2.18 6.72-4.67 1.13-1.95 2.36-4.63 3.02-7.79z"/>
		<path class="s0" d="m559.89 583.79c0.69 1.2 1.5 2.68 2.3 4.27 2.11 4.15 3.41 8.67 3.86 13.31l1.66 17.15q0.21 2.17 0.21 4.35v5.18q-0.01 1.28-0.55 2.44c-0.38 0.77-1.36 1.02-2.06 0.51-1.5-1.09-2.68-2.57-3.42-4.27l-4.28-9.83c-1.3-2.98-2.08-6.17-2.27-9.42-0.38-6.26-0.62-16.8 1.35-23.33 0.45-1.46 2.44-1.69 3.2-0.36z"/>
		<path class="s0" d="m566.9 589.23c2.42 2.13 5.56 6.43 5.76 14.48 0.04 1.6 0.07 3.2 0.17 4.8 0.22 3.27 0.5 8.85 0.27 12.98-0.04 0.78-1.15 0.87-1.33 0.12-0.89-3.67-2.18-9.62-2.47-14.52 0 0-1.33-10.68-3.77-16.87-0.33-0.85 0.69-1.59 1.37-0.99z"/>
	</g>

	<!-- GLUTES -->
	<g id="glutes">
		<path class="s0" d="m479.69 667.24c-1.1 1.62-2.6 4.31-3.72 8.09-0.44 1.5 1.24 2.74 2.55 1.89 3.48-2.24 8.97-5.66 13.93-8.14 1.22-0.62 1.1-2.42-0.21-2.84-1.65-0.53-4.4-0.96-8.94-0.92-1.44 0.02-2.8 0.72-3.61 1.92z"/>
		<path class="s0" d="m500.48 670.97c1.08 0.81 2.27 1.79 3.44 2.93 3.61 3.51 5.62 8.35 5.62 13.38v19.36c0 3.93-2.1 7.59-5.54 9.49-2.8 1.55-6.6 2.92-11.31 2.92-6.46 0-11.52-4.93-14.54-8.89-2.06-2.7-3.14-6.01-3.14-9.4v-12.34c0-3.39 1.3-6.69 3.74-9.05q1-0.97 2.38-1.87l10.98-6.88c2.59-1.62 5.92-1.49 8.37 0.35z"/>
		<path class="s0" d="m543 667.24c1.1 1.62 2.61 4.31 3.72 8.09 0.44 1.5-1.24 2.74-2.55 1.89-3.47-2.24-8.97-5.66-13.93-8.14-1.22-0.62-1.09-2.42 0.21-2.84 1.66-0.53 4.4-0.96 8.94-0.92 1.45 0.02 2.8 0.72 3.61 1.92z"/>
		<path class="s0" d="m522.22 670.97c-1.08 0.81-2.27 1.79-3.45 2.93-3.6 3.51-5.62 8.35-5.62 13.38v19.36c0 3.93 2.1 7.59 5.55 9.49 2.79 1.55 6.6 2.92 11.31 2.92 6.45 0 11.51-4.93 14.54-8.89 2.05-2.7 3.13-6.01 3.13-9.4v-12.34c0-3.39-1.29-6.69-3.74-9.05q-1-0.97-2.38-1.87l-10.98-6.88c-2.59-1.62-5.91-1.49-8.36 0.35z"/>
		<!-- Right lower back connectors -->
		<path class="s0" d="m458.32 635.87c0.61-0.85 1.48-1.95 2.6-3.12 0.81-0.86 2.26-0.26 2.21 0.92-0.08 2-0.27 4.61-0.71 6.74-0.3 1.4-1.98 2.02-3.08 1.11q-0.57-0.47-1.07-1.16c-0.96-1.34-0.92-3.16 0.05-4.49z"/>
		<path class="s0" d="m446.61 629.06c-0.49-0.9-1.84-0.66-2.01 0.36-0.35 1.97-0.46 4.92 0.73 8.32 0 0 1.37 3.41 2.22 6.23 0.29 0.95 1.63 0.99 1.96 0.05 0.67-1.85 1.3-4.12 1.12-5.71-0.23-2.08-2.52-6.53-4.02-9.25z"/>
		<path class="s0" d="m564.38 635.87c-0.62-0.85-1.49-1.95-2.6-3.12-0.82-0.86-2.26-0.26-2.22 0.92 0.08 2 0.27 4.61 0.72 6.74 0.29 1.4 1.98 2.02 3.07 1.11q0.58-0.47 1.08-1.16c0.96-1.34 0.92-3.16-0.05-4.49z"/>
		<path class="s0" d="m576.08 629.06c0.5-0.9 1.84-0.66 2.02 0.36 0.35 1.97 0.46 4.92-0.74 8.32 0 0-1.36 3.41-2.21 6.23-0.29 0.95-1.63 0.99-1.97 0.05-0.66-1.85-1.29-4.12-1.12-5.71 0.24-2.08 2.53-6.53 4.02-9.25z"/>
	</g>

	<!-- HAMSTRINGS -->
	<g id="hamstrings">
		<path class="s0" d="m468.59 710.7c-1.47 7.22-2.76 22.89 3.85 49.8 0.27 1.07 1.84 0.91 1.87-0.19l0.69-25.62c0.1-3.65-0.49-7.28-1.69-10.72-1.23-3.52-2.71-8.5-3.21-13.19-0.09-0.88-1.33-0.94-1.51-0.08z"/>
		<path class="s0" d="m490.37 725.89c-0.6 3.63-1.32 8.79-1.43 13.3-0.08 3.74-0.38 7.47-0.76 11.19l-1.1 10.84c0 0-2.33 21.3 1.38 32.43 0.45 1.36 2.46 0.99 2.41-0.44-0.23-6.5-0.03-17.59 3.3-26.08 0 0 5.18-16.06 4.83-23.32-0.23-4.83-3.59-13.21-5.82-18.28-0.59-1.34-2.56-1.09-2.81 0.36z"/>
		<path class="s0" d="m497.01 720.98c2.08-0.3 5.15-0.85 7.6-1.77 1.45-0.54 3.03 0.31 3.42 1.81 0.65 2.51 1.1 6.4-0.39 10.87 0 0-1.96 4.9-1.72 9.28 0.07 1.26 0.09 2.52-0.05 3.77-0.22 1.97-0.63 4.87-1.32 7.38-0.31 1.11-1.92 0.96-2.02-0.19-0.49-5.66-1.8-15.64-5.27-21.96-0.42-0.78-0.84-1.55-1.18-2.37-0.43-1.01-0.95-2.38-1.25-3.7-0.34-1.47 0.69-2.9 2.18-3.12z"/>
		<path class="s0" d="m501.03 754.37q0.12 0.87 0.24 1.81c0.59 4.91 0.45 9.89-0.37 14.77-0.59 3.55-1.38 8.73-1.88 13.8 0 0-0.87 9.49-2.22 15.1-0.29 1.24-2.05 1.26-2.38 0.02-1.28-4.74-2.79-13.49 0.34-21.51 0 0 3.73-9.06 4.95-23.95 0.06-0.8 1.21-0.84 1.32-0.04z"/>
		<path class="s0" d="m473.52 793.17c-0.41-4.6-0.62-12.4 1.96-16.85 1.12-1.94 1.45-4.24 1.05-6.44q-0.01-0.06-0.02-0.11-0.48-2.67-0.36-5.39l0.87-22.12c0 0-0.2-14.71 5.45-19.95 2.47-2.29 6.57-0.58 6.52 2.79q0 0.96-0.35 2.13c0 0-2.66 13.01-3.63 44.05 0 0-0.35 4.84-2.25 7.95l-7.16 14.33c-0.5 0.99-1.99 0.72-2.08-0.39z"/>
		<path class="s0" d="m554.1 710.7c1.48 7.22 2.76 22.89-3.85 49.8-0.26 1.07-1.83 0.91-1.86-0.19l-0.7-25.62c-0.1-3.65 0.49-7.28 1.69-10.72 1.24-3.52 2.71-8.5 3.21-13.19 0.1-0.88 1.34-0.94 1.51-0.08z"/>
		<path class="s0" d="m532.32 725.89c0.61 3.63 1.33 8.79 1.43 13.3 0.09 3.74 0.38 7.47 0.76 11.19l1.1 10.84c0 0 2.33 21.3-1.37 32.43-0.45 1.36-2.47 0.99-2.42-0.44 0.24-6.5 0.03-17.59-3.29-26.08 0 0-5.18-16.06-4.84-23.32 0.23-4.83 3.6-13.21 5.82-18.28 0.59-1.34 2.57-1.09 2.81 0.36z"/>
		<path class="s0" d="m525.68 720.98c-2.07-0.3-5.15-0.85-7.6-1.77-1.44-0.54-3.02 0.31-3.41 1.81-0.65 2.51-1.1 6.4 0.38 10.87 0 0 1.96 4.9 1.73 9.28-0.07 1.26-0.09 2.52 0.05 3.77 0.22 1.97 0.63 4.87 1.32 7.38 0.3 1.11 1.92 0.96 2.01-0.19 0.49-5.66 1.81-15.64 5.27-21.96 0.43-0.78 0.84-1.55 1.19-2.37 0.42-1.01 0.94-2.38 1.25-3.7 0.34-1.47-0.69-2.9-2.19-3.12z"/>
		<path class="s0" d="m521.67 754.37q-0.13 0.87-0.24 1.81c-0.59 4.91-0.45 9.89 0.36 14.77 0.6 3.55 1.39 8.73 1.89 13.8 0 0 0.87 9.49 2.21 15.1 0.3 1.24 2.06 1.26 2.39 0.02 1.27-4.74 2.79-13.49-0.35-21.51 0 0-3.72-9.06-4.94-23.95-0.07-0.8-1.22-0.84-1.32-0.04z"/>
		<path class="s0" d="m549.18 793.17c0.41-4.6 0.62-12.4-1.96-16.85-1.12-1.94-1.45-4.24-1.06-6.44q0.01-0.06 0.02-0.11 0.48-2.67 0.37-5.39l-0.88-22.12c0 0 0.21-14.71-5.44-19.95-2.48-2.29-6.58-0.58-6.53 2.79q0.01 0.96 0.36 2.13c0 0 2.65 13.01 3.62 44.05 0 0 0.35 4.84 2.25 7.95l7.17 14.33c0.5 0.99 1.98 0.72 2.08-0.39z"/>
		<!-- Lower back / oblique connectors -->
		<path class="s0" d="m437.66 656.72c-1.06 7.01-2.97 20.77-3.15 30.31-0.02 0.69 0.97 0.81 1.13 0.14 1.39-5.91 3.57-17.54 3.03-30.39-0.03-0.61-0.92-0.66-1.01-0.06z"/>
		<path class="s0" d="m443.97 639.76c0.67 2.53 1.51 5.56 2.19 7.6 0.46 1.39 0.67 2.85 0.62 4.32-0.15 4.21-0.68 12.75-2.63 18.54-1.6 4.76-3.43 11.58-4.63 16.27-0.14 0.54-0.93 0.4-0.88-0.15l3.75-46.44c0.07-0.9 1.34-1.02 1.58-0.14z"/>
		<path class="s0" d="m453.59 645.04q0.01-0.05 0.02-0.09c0.35-1.26 1.73-1.95 2.92-1.4 1.01 0.47 2.11 1.22 2.88 2.44 1.19 1.88 1.09 4.31-0.05 6.22-0.98 1.64-2.55 4.79-4.13 10.1q-0.79 2.63-1.86 5.16l-9.59 23c-0.25 0.61-1.15 0.34-1.03-0.3l4.76-25.74c0 0 1.51-9.26 3.85-13.81 0.92-1.79 1.69-3.65 2.23-5.58z"/>
		<path class="s0" d="m585.04 656.72c1.06 7.01 2.97 20.77 3.15 30.31 0.01 0.69-0.98 0.81-1.13 0.14-1.39-5.91-3.57-17.54-3.03-30.39 0.02-0.61 0.91-0.66 1.01-0.06z"/>
		<path class="s0" d="m578.73 639.76c-0.68 2.53-1.52 5.56-2.2 7.6-0.46 1.39-0.66 2.85-0.61 4.32 0.14 4.21 0.67 12.75 2.62 18.54 1.61 4.76 3.43 11.58 4.63 16.27 0.14 0.54 0.94 0.4 0.89-0.15l-3.75-46.44c-0.07-0.9-1.35-1.02-1.58-0.14z"/>
		<path class="s0" d="m569.11 645.04q-0.02-0.05-0.03-0.09c-0.34-1.26-1.73-1.95-2.91-1.4-1.01 0.47-2.12 1.22-2.89 2.44-1.19 1.88-1.08 4.31 0.06 6.22 0.98 1.64 2.55 4.79 4.13 10.1q0.79 2.63 1.85 5.16l9.59 23c0.25 0.61 1.16 0.34 1.04-0.3l-4.77-25.74c0 0-1.5-9.26-3.85-13.81-0.92-1.79-1.69-3.65-2.22-5.58z"/>
	</g>

	<!-- CALVES -->
	<g id="calves">
		<path class="s0" d="m488.68 799.12l3.04 4c1.38 1.81 2.25 3.96 2.54 6.22l2.87 22.24c0.3 2.38 0.4 4.78 0.23 7.17-0.14 1.76-0.42 3.72-1.01 5.37 0 0-0.95 3.16-1.86 6.89-0.4 1.62-2.29 2.33-3.68 1.4-1.49-0.99-3.26-2.57-4.67-5-0.79-1.34-1.17-2.88-1.12-4.44 0.16-4.98 0.58-18.17 0.77-23.89q0.08-2.41 0.28-4.82c0.2-2.5 0.46-6.57 0.15-8.49-0.25-1.56-0.02-4.08 0.23-6.05 0.15-1.11 1.56-1.49 2.23-0.6z"/>
		<path class="s0" d="m477.3 794.32l-0.69 1.06c-1.92 2.93-3.16 6.27-3.51 9.76-0.16 1.68-0.5 3.71-1.15 5.88-1.43 4.78-2.12 9.75-1.91 14.73 0.16 3.55 0.61 7.43 1.67 10.66l2.6 8.75c0.61 2.02 3.22 2.56 4.57 0.94l2.54-3.06c1.11-1.33 1.78-2.97 1.92-4.7 0.33-4.06 0.87-11.8 0.65-16.34q-0.16-3.08-0.13-6.16l0.18-13.52c0 0 0.02-4.18-3.39-8.2-0.91-1.07-2.58-0.98-3.35 0.2z"/>
		<path class="s0" d="m476.55 857c0.58 2.77 1.35 6.18 2.01 8.02 0.45 1.29 0.87 2.58 1.18 3.9 0.67 2.83 1.63 7.21 1.92 10.35 0.05 0.43-0.57 0.57-0.71 0.15l-3.02-8.72c0 0-1.85-5.04-2.21-13.59-0.02-0.51 0.72-0.61 0.83-0.11z"/>
		<path class="s0" d="m492.14 865.02l-0.23 5.41q-0.16 3.73-0.99 7.37l-0.61 2.74c-0.11 0.47-0.81 0.38-0.79-0.1 0.11-3.64 0.52-9.52 1.97-15.51 0.09-0.39 0.67-0.31 0.65 0.09z"/>
		<path class="s0" d="m534.01 799.12l-3.03 4c-1.38 1.81-2.26 3.96-2.55 6.22l-2.86 22.24c-0.31 2.38-0.41 4.78-0.23 7.17 0.13 1.76 0.42 3.72 1 5.37 0 0 0.95 3.16 1.87 6.89 0.39 1.62 2.28 2.33 3.67 1.4 1.49-0.99 3.27-2.57 4.68-5 0.78-1.34 1.17-2.88 1.12-4.44-0.16-4.98-0.59-18.17-0.77-23.89q-0.08-2.41-0.28-4.82c-0.21-2.5-0.46-6.57-0.15-8.49 0.25-1.56 0.02-4.08-0.24-6.05-0.14-1.11-1.55-1.49-2.23-0.6z"/>
		<path class="s0" d="m545.39 794.32l0.7 1.06c1.92 2.93 3.15 6.27 3.5 9.76 0.17 1.68 0.51 3.71 1.16 5.88 1.42 4.78 2.11 9.75 1.9 14.73-0.15 3.55-0.6 7.43-1.66 10.66l-2.61 8.75c-0.6 2.02-3.21 2.56-4.56 0.94l-2.55-3.06c-1.11-1.33-1.77-2.97-1.91-4.7-0.33-4.06-0.87-11.8-0.65-16.34q0.16-3.08 0.13-6.16l-0.18-13.52c0 0-0.02-4.18 3.39-8.2 0.9-1.07 2.58-0.98 3.34 0.2z"/>
		<path class="s0" d="m546.15 857c-0.58 2.77-1.36 6.18-2.01 8.02-0.46 1.29-0.87 2.58-1.19 3.9-0.67 2.83-1.62 7.21-1.92 10.35-0.04 0.43 0.57 0.57 0.72 0.15l3.02-8.72c0 0 1.85-5.04 2.2-13.59 0.03-0.51-0.72-0.61-0.82-0.11z"/>
		<path class="s0" d="m530.56 865.02l0.23 5.41q0.16 3.73 0.98 7.37l0.62 2.74c0.11 0.47 0.8 0.38 0.79-0.1-0.11-3.64-0.53-9.52-1.98-15.51-0.09-0.39-0.66-0.31-0.64 0.09z"/>
	</g>
</svg>
