<svg xmlns="http://www.w3.org/2000/svg" viewBox="0 0 400 800" width="400" height="800">
  <style>
    .s0 { fill: #666 }
  </style>

  <!-- FRONT BODY -->

  <!-- Body: hands, fingers, neck -->
  <g id="body">
    <!-- Right hand/fingers -->
    <g>
      <path class="s0" d="m175.7 321.8c-0.9-2.2-2.8-3.5-4.3-3.1 0.9 0.7 1.9 2.2 2.7 4 0.7 1.6 1 3.2 1 4.3 1.2-0.9 1.5-3.1 0.6-5.2z"/>
    </g>
    <path class="s0" d="m164.7 316.9l6.2 22.9c0.1 0.3-0.3 0.5-0.5 0.2-1.6-2.4-4.6-7.3-6.4-11.4-0.7-1.8-1-3.7-0.7-5.6 0.3-1.6 0.6-3.8 0.7-6 0-0.4 0.5-0.5 0.7-0.1z"/>
    <path class="s0" d="m163.9 331.8v5.5c0 2.1 1.1 4.1 3 5.1q0.9 0.5 1.9 0.8c0.5 0.2 1-0.4 0.8-0.9-0.8-1.9-2.5-5.7-5.1-10.7-0.2-0.3-0.6-0.2-0.6 0.2z"/>
    <path class="s0" d="m161.3 329.3l-2.2 9.3q-0.4 1.8-0.4 3.7c0 0.9 1 1.5 1.8 1.1 1.1-0.6 1.8-1.8 1.7-3l-0.4-11c0-0.3-0.4-0.3-0.5 0z"/>
    <path class="s0" d="m159.5 330.7c-1.6 1.7-5.3 5-13.4 7.3-0.6 0.2-0.7 1.1-0.1 1.3 1.6 0.7 4.1 1.7 7.2 2.4 1.5 0.4 3.1-0.5 3.8-2 0.8-1.9 2-4.9 3.1-8.9 0.1-0.3-0.3-0.5-0.6-0.1z"/>
    <!-- Left hand/fingers -->
    <g>
      <path class="s0" d="m228.4 321.8c0.9-2.2 2.8-3.5 4.3-3.1-0.9 0.7-1.9 2.2-2.7 4-0.7 1.6-1 3.2-1 4.3-1.2-0.9-1.5-3.1-0.6-5.2z"/>
    </g>
    <path class="s0" d="m239.3 316.9l-6.2 22.9c-0.1 0.3 0.3 0.5 0.5 0.2 1.6-2.4 4.6-7.3 6.4-11.4 0.7-1.8 1-3.7 0.7-5.6-0.3-1.6-0.6-3.8-0.7-6 0-0.4-0.5-0.5-0.7-0.1z"/>
    <path class="s0" d="m240.1 331.8v5.5c0 2.1-1.1 4.1-3 5.1q-0.9 0.5-1.9 0.8c-0.5 0.2-1-0.4-0.8-0.9 0.8-1.9 2.5-5.7 5.1-10.7 0.2-0.3 0.6-0.2 0.6 0.2z"/>
    <path class="s0" d="m242.8 329.3l2.2 9.3q0.4 1.8 0.4 3.7c0 0.9-1 1.5-1.8 1.1-1.1-0.6-1.8-1.8-1.7-3l0.4-11c0-0.3 0.4-0.3 0.5 0z"/>
    <path class="s0" d="m244.5 330.7c1.6 1.7 5.3 5 13.4 7.3 0.6 0.2 0.7 1.1 0.1 1.3-1.6 0.7-4.1 1.7-7.2 2.4-1.5 0.4-3.1-0.5-3.8-2-0.8-1.9-2-4.9-3.1-8.9-0.1-0.3 0.3-0.5 0.6-0.1z"/>
  </g>

  <!-- CHEST -->
  <g id="chest">
    <!-- Right pec -->
    <path class="s0" d="m165.3 345.7c-7.7-0.4-25 0.1-28.9 11.2-0.9 2.4-0.8 5.1-0.2 7.5 1.6 6.2 6.8 21.9 17.6 23.2 5 0.6 8.9 0.4 11.9-0.1 4.3-0.7 7.6-4 8.3-8.3 1.2-7.6 2.4-20.9-2.3-29.5-1.3-2.4-3.8-3.9-6.4-4z"/>
    <!-- Left pec -->
    <path class="s0" d="m238.8 345.7c7.7-0.4 25 0.1 28.9 11.2 0.8 2.4 0.8 5.1 0.2 7.5-1.6 6.2-6.8 21.9-17.6 23.2-5 0.6-8.9 0.4-11.9-0.1-4.3-0.7-7.6-4-8.3-8.3-1.2-7.6-2.4-20.9 2.3-29.5 1.3-2.4 3.8-3.9 6.4-4z"/>
  </g>

  <!-- FRONT DELTS (anterior deltoid — inner shoulder, closer to chest) -->
  <g id="front-delts">
    <!-- Right front delt -->
    <path class="s0" d="m151.6 344c-1.7-0.7-4.4-1.9-8.4-4.3-1.4-0.8-3-1.1-4.5-0.9-5.1 0.8-12 2.8-16.2 9.5q-0.3 0.5-0.5 1l2.8 1.5c1.9-3.8 5.4-6.4 9.4-7.4 3.5-0.9 7.8 0.2 17.6-0.5 0.5-0.1 0.6-0.7 0.2-0.9z"/>
    <!-- Left front delt -->
    <path class="s0" d="m252.5 344c1.7-0.7 4.4-1.9 8.4-4.3 1.4-0.8 3-1.1 4.5-0.9 5.1 0.8 12 2.8 16.2 9.5q0.3 0.5 0.5 1l-2.8 1.5c-1.9-3.8-5.4-6.4-9.4-7.4-3.5-0.9-7.8 0.2-17.6-0.5-0.5-0.1-0.6-0.7-0.2-0.9z"/>
  </g>

  <!-- SIDE DELTS (lateral deltoid — outer shoulder cap) -->
  <g id="side-delts">
    <!-- Right side delt: the main mass hanging off the shoulder -->
    <path class="s0" d="m122.5 349.5q-0.2 0.9-0.3 1.8-0.5 1.7-0.5 3.5v0.1c0 2.3 0.6 4.5 1.7 6.5 1.1 2 2.5 4.7 3 7.1 0.3 1.1 1.4 1.6 2.4 1 1.3-0.8 3-2.1 4.6-4 1.9-2.3 3-5.2 3.2-8.2 0.2-2.8 1.2-7.8 6.5-11.4l-2.8-1.5c-3.2 4.5-9.8 7.5-14.2 6.6-1.5-0.3-2.8-0.8-3.6-1.5z"/>
    <path class="s0" d="m116.5 358.9q-0.2 1-0.3 2.3c-0.6 4.3-0.6 8.7-0.1 13.1 0.2 1.7 0.4 3.7 0.4 5.5 0 0.8 1 1.2 1.5 0.6l4-4.6c0.5-0.5 0.6-1.3 0.2-1.9-1.3-2.3-4.4-8.2-5-14.9-0.1-0.4-0.6-0.4-0.7 0z"/>
    <!-- Left side delt -->
    <path class="s0" d="m281.5 349.5q0.2 0.9 0.3 1.8 0.5 1.7 0.5 3.5v0.1c0 2.3-0.6 4.5-1.7 6.5-1.1 2-2.5 4.7-3 7.1-0.3 1.1-1.4 1.6-2.4 1-1.3-0.8-3-2.1-4.6-4-1.9-2.3-3-5.2-3.2-8.2-0.2-2.8-1.2-7.8-6.5-11.4l2.8-1.5c3.2 4.5 9.8 7.5 14.2 6.6 1.5-0.3 2.8-0.8 3.6-1.5z"/>
    <path class="s0" d="m287.5 358.9q0.2 1 0.3 2.3c0.6 4.3 0.6 8.7 0.1 13.1-0.2 1.7-0.4 3.7-0.4 5.5 0 0.8-1 1.2-1.5 0.6l-4-4.6c-0.5-0.5-0.6-1.3-0.2-1.9 1.3-2.3 4.4-8.2 5-14.9 0.1-0.4 0.6-0.4 0.7 0z"/>
  </g>

  <!-- BICEPS (upper arm only, y ~368-430) -->
  <g id="biceps">
    <!-- Right bicep: the 2 upper arm muscle strips -->
    <path class="s0" d="m125.2 375.6c0.2-0.4-0.3-0.9-0.7-0.5-3.9 3.7-12 12.8-12.1 23.8-0.2 9.9 1.5 16.2 2.5 19.1 0.1 0.4 0.7 0.3 0.6-0.1-0.3-6.1-0.3-24.4 9.7-42.3z"/>
    <path class="s0" d="m132 368.5c0.6-0.9 2-0.5 2.1 0.6 0.5 5.7 1.3 18.5-2.1 25.2-3.3 6.6-9.6 17-12.4 21.6-0.4 0.7-1.6 0.4-1.6-0.4-0.1-7.6 1-29.2 14-46.9z"/>
    <path class="s0" d="m122 419.5c1.1 1.6 2.8 4.4 3.8 7.4 0.2 0.6 1.1 0.6 1.3-0.1 0.4-1.9 0.9-4.3 0.9-6.2 0-1.6 0.1-3.2 0.3-4.7 0.5-3.5 1.3-8 3.3-12.2 0.7-1.5 1.7-3.3 2.3-5 0.5-1.2 1.5-3.6 0-4.4 0 0-5.7 13.9-11.8 22.6-0.5 0.8-0.5 1.8 0 2.5z"/>
    <!-- Left bicep -->
    <path class="s0" d="m278.8 375.6c-0.2-0.4 0.3-0.9 0.7-0.5 3.9 3.7 12 12.8 12.1 23.8 0.2 9.9-1.5 16.2-2.5 19.1-0.1 0.4-0.7 0.3-0.6-0.1 0.3-6.1 0.3-24.4-9.7-42.3z"/>
    <path class="s0" d="m272 368.5c-0.6-0.9-2-0.5-2.1 0.6-0.5 5.7-1.3 18.5 2.1 25.2 3.3 6.6 9.6 17 12.4 21.6 0.4 0.7 1.6 0.4 1.6-0.4 0.1-7.6-1-29.2-14-46.9z"/>
    <path class="s0" d="m282.1 419.5c-1.1 1.6-2.8 4.4-3.8 7.4-0.2 0.6-1.1 0.6-1.3-0.1-0.4-1.9-0.9-4.3-0.9-6.2 0-1.6-0.1-3.2-0.3-4.7-0.5-3.5-1.3-8-3.3-12.2-0.7-1.5-1.7-3.3-2.3-5-0.5-1.2-1.5-3.6 0-4.4 0 0 5.7 13.9 11.8 22.6 0.5 0.8 0.5 1.8 0 2.5z"/>
  </g>

  <!-- TRICEPS (front view — thin lateral strip visible behind the arm, y ~412-475) -->
  <g id="triceps">
    <!-- Right tricep (outer arm, long strip visible from front) -->
    <path class="s0" d="m112 412.5c-0.3-1.4-2.1-1.8-3-0.8-3.2 3.7-9 13.3-8.7 34.1 0 0 0.3 17-0.4 25.1-0 0.4 0.5 0.5 0.6 0.1 3.4-9.9 14.8-45.1 11.5-58.5z"/>
    <path class="s0" d="m120.7 421.8c0.6 1.2 1.1 2.9 0.8 4.9-0.1 0.9-0.4 1.8-0.8 2.6-1.6 3.1-7.3 15.2-16.7 42.2-0.1 0.4-0.6 0.2-0.6-0.1 2.1-10.9 8.4-40.9 14.6-49.8 0.7-1 2.1-0.8 2.6 0.2z"/>
    <path class="s0" d="m122.1 430.7c0.4-0.9 1.7-0.9 2.1 0 0.8 2 1.4 5.3-0.5 9.4 0 0-12.6 27.9-15.8 35.5-0.1 0.3-0.6 0.2-0.6-0.2 0.5-4.3 3-16.7 14.8-44.7z"/>
    <!-- Left tricep -->
    <path class="s0" d="m292 412.5c0.3-1.4 2.1-1.8 3-0.8 3.2 3.7 9 13.3 8.7 34.1 0 0-0.3 17 0.4 25.1 0 0.4-0.5 0.5-0.6 0.1-3.4-9.9-14.8-45.1-11.5-58.5z"/>
    <path class="s0" d="m283.4 421.8c-0.6 1.2-1.1 2.9-0.8 4.9 0.1 0.9 0.4 1.8 0.8 2.6 1.6 3.1 7.3 15.2 16.7 42.2 0.1 0.4 0.6 0.2 0.6-0.1-2.1-10.9-8.4-40.9-14.6-49.8-0.7-1-2.1-0.8-2.6 0.2z"/>
    <path class="s0" d="m282 430.7c-0.4-0.9-1.7-0.9-2.1 0-0.8 2-1.4 5.3 0.5 9.4 0 0 12.6 27.9 15.8 35.5 0.1 0.3 0.6 0.2 0.6-0.2-0.5-4.3-3-16.7-14.8-44.7z"/>
  </g>

  <!-- FOREARMS (lower arm paths, y ~460+) -->
  <g id="forearms">
    <!-- Right forearm -->
    <path class="s0" d="m139.9 460.4c-0.2-0.7-1.3-0.7-1.5 0-0.8 3.1-2.2 8.8-2.5 15.3 0 0-0.9 9.6-2.5 15-1 3.4-1.6 6.8-1.6 10.3q0 0.1 0 0.2c0 1 1.5 1.2 1.8 0.2l2.6-9.2q1.6-5.5 3.5-11 0-0.1 0.1-0.2c2.3-6.6 2.4-13.8 0.2-20.4z"/>
    <path class="s0" d="m148.7 465.8l2.7 4.3q0.4 0.6 0.4 1.4v5.6c0 0.6-0.8 0.8-1.1 0.3-0.9-2-2.2-5.7-2.8-11.2 0-0.4 0.5-0.6 0.8-0.3z"/>
    <path class="s0" d="m154.1 473l1.8 2.2c0.8 1 1.3 2.3 1.3 3.6-0.1 2.1-0.4 5.4-2.3 8.5-0.3 0.5-1 0.3-1.1-0.2-0.4-2.4-1.1-7.4-0.9-13.7 0-0.6 0.8-0.9 1.2-0.4z"/>
    <path class="s0" d="m159.9 480.3q0.2 0.2 0.4 0.4c1.6 1.6 2.2 3.8 1.7 5.9-0.7 2.9-1.9 6.8-3.9 9.4-0.5 0.6-1.5 0.3-1.6-0.4l-0.7-4.9c-0.1-0.8 0-1.5 0.4-2.2 0.9-1.5 2.5-4.6 2.7-7.8 0-0.6 0.7-0.8 1.1-0.4z"/>
    <path class="s0" d="m144.5 463.7l0.2 0.3q0.8 1 1.2 2.2l8.6 28.2q2.1 7 4.6 13.9c3.1 8.8 9 28.2 7.6 46.1-0 0.4-0.6 0.4-0.6 0-0.9-6.1-3.6-21.9-10.3-38.2 0 0-10-27.9-12.7-51.8-0.1-0.8 0.9-1.3 1.5-0.6z"/>
    <path class="s0" d="m143.7 479.6c-0.2-1-1.6-1-1.8-0.1-2 7.4-6.1 24.4-6.3 40 0 0 0.2 13.5 2.3 18.7l8.3 20.3c0.8 1.8 3.3 2 4.3 0.3 0.9-1.6 1.9-3.7 2.3-6.1 0 0 2-8.2 3.1-16.6 0.9-6.8 0.2-13.8-2-20.3-2.8-8.4-7.5-23-10.2-36.2z"/>
    <!-- Left forearm -->
    <path class="s0" d="m264.2 460.4c0.2-0.7 1.3-0.7 1.5 0 0.8 3.1 2.2 8.8 2.5 15.3 0 0 0.9 9.6 2.5 15 1 3.4 1.6 6.8 1.6 10.3q0 0.1 0 0.2c0 1-1.5 1.2-1.8 0.2l-2.6-9.2q-1.6-5.5-3.5-11 0-0.1-0.1-0.2c-2.3-6.6-2.4-13.8-0.2-20.4z"/>
    <path class="s0" d="m255.4 465.8l-2.7 4.3q-0.4 0.6-0.4 1.4v5.6c0 0.6 0.8 0.8 1.1 0.3 0.9-2 2.2-5.7 2.8-11.2 0-0.4-0.5-0.6-0.8-0.3z"/>
    <path class="s0" d="m250 473l-1.8 2.2c-0.8 1-1.3 2.3-1.3 3.6 0.1 2.1 0.4 5.4 2.3 8.5 0.3 0.5 1 0.3 1.1-0.2 0.4-2.4 1.1-7.4 0.9-13.7 0-0.6-0.8-0.9-1.2-0.4z"/>
    <path class="s0" d="m244.2 480.3q-0.2 0.2-0.4 0.4c-1.6 1.6-2.2 3.8-1.7 5.9 0.7 2.9 1.9 6.8 3.9 9.4 0.5 0.6 1.5 0.3 1.6-0.4l0.7-4.9c0.1-0.8 0-1.5-0.4-2.2-0.9-1.5-2.5-4.6-2.7-7.8 0-0.6-0.7-0.8-1.1-0.4z"/>
    <path class="s0" d="m259.6 463.7l-0.2 0.3q-0.8 1-1.2 2.2l-8.6 28.2q-2.1 7-4.6 13.9c-3.1 8.8-9 28.2-7.6 46.1 0 0.4 0.6 0.4 0.6 0 0.9-6.1 3.6-21.9 10.3-38.2 0 0 10-27.9 12.7-51.8 0.1-0.8-0.9-1.3-1.5-0.6z"/>
    <path class="s0" d="m260.3 479.6c0.2-1 1.6-1 1.8-0.1 2 7.4 6.1 24.4 6.3 40 0 0-0.2 13.5-2.3 18.7l-8.3 20.3c-0.8 1.8-3.3 2-4.3 0.3-0.9-1.6-1.9-3.7-2.3-6.1 0 0-2-8.2-3.1-16.6-0.9-6.8-0.2-13.8 2-20.3 2.8-8.4 7.5-23 10.2-36.2z"/>
  </g>

  <!-- ABS (right-to-left, going down) -->
  <g id="abs">
    <!-- abs1 (right upper) -->
    <path class="s0" d="m175.2 398.2c0-2-0.1-5.8-1.5-8.7-0.4-0.9-1.4-1.4-2.4-1.3l-7.7 1.2c-2.2 0.4-4.2 1.4-5.5 3.2-0.8 1-1.4 2.4-1.3 4l0.4 11.1c0 1.3 1.5 2.1 2.6 1.3 3-2.2 8.4-5.8 14.2-8.8 0.8-0.4 1.2-1.2 1.3-2z"/>
    <!-- abs2 (left upper) -->
    <path class="s0" d="m228.9 398.2c0-2 0.1-5.8 1.5-8.7 0.4-0.9 1.4-1.4 2.4-1.3l7.7 1.2c2.2 0.4 4.2 1.4 5.5 3.2 0.8 1 1.4 2.4 1.3 4l-0.4 11.1c0 1.3-1.5 2.1-2.6 1.3-3-2.2-8.4-5.8-14.2-8.8-0.8-0.4-1.2-1.2-1.3-2z"/>
    <!-- abs3 (right mid-upper) -->
    <path class="s0" d="m175.7 407v9.6c0 1.5-0.6 3-1.7 4.1-0.5 0.5-1.2 0.9-1.9 0.9 0 0-5.2 0.1-10.2 1.5-1.7 0.5-3.5-0.2-4.5-1.7-0.6-1-1.1-2.2-0.9-3.9 0.1-0.9 0.5-1.8 1.1-2.5 2.3-2.6 9.2-10 14-11.2 2-0.6 4 1 4 3.2z"/>
    <!-- abs4 (left mid-upper) -->
    <path class="s0" d="m228.4 407v9.6c0 1.5 0.6 3 1.7 4.1 0.5 0.5 1.2 0.9 1.9 0.9 0 0 5.2 0.1 10.2 1.5 1.7 0.5 3.5-0.2 4.5-1.7 0.6-1 1.1-2.2 0.9-3.9-0.1-0.9-0.5-1.8-1.1-2.5-2.3-2.6-9.2-10-14-11.2-2-0.6-4 1-4 3.2z"/>
    <!-- abs5 (right mid) -->
    <path class="s0" d="m156.8 433.7c0 1.3 0.4 2.7 1.3 3.7 0.9 1 2.3 2 4.7 2h6.5c1.1 0 2.3-0.2 3.3-0.6 1.5-0.5 3.1-1.5 3.1-3.4v-8.2c0 0 0-4.1-4.2-4.1 0 0-14.7 0.8-14.7 6.2z"/>
    <!-- abs6 (left mid) -->
    <path class="s0" d="m247.3 433.7c0 1.3-0.4 2.7-1.3 3.7-0.9 1-2.3 2-4.7 2h-6.5c-1.1 0-2.3-0.2-3.3-0.6-1.5-0.5-3.1-1.5-3.1-3.4v-8.2c0 0 0-4.1 4.2-4.1 0 0 14.7 0.8 14.7 6.2z"/>
    <!-- abs7 (right lower) -->
    <path class="s0" d="m157 443.2c1.1 8 5.6 36.4 16.1 43.9 1.1 0.8 2.5-0.1 2.5-1.4v-37.6c0-1-0.4-2-1.2-2.6-0.7-0.6-1.5-1.5-2-2.7-0.3-0.9-1.2-1.5-2.2-1.5-2.5 0.2-7.1 0.4-11.5 0.1-1.1-0.1-1.9 0.8-1.8 1.9z"/>
    <!-- abs8 (left lower) -->
    <path class="s0" d="m247 443.2c-1.1 8-5.6 36.4-16.1 43.9-1.1 0.8-2.5-0.1-2.5-1.4v-37.6c0-1 0.4-2 1.2-2.6 0.7-0.6 1.5-1.5 2-2.7 0.3-0.9 1.2-1.5 2.2-1.5 2.5 0.2 7.1 0.4 11.5 0.1 1.1-0.1 1.9 0.8 1.8 1.9z"/>
    <!-- Right obliques / serratus -->
    <path class="s0" d="m135.8 371.6c-0.3 7.6-0.4 25.9 4.3 36.8 0.2 0.5 1 0.5 1.1-0.1 0.7-3 2-9.6 0.7-13.8-0.6-1.8-1.1-3.6-1.5-5.5l-3.8-17.5c-0.1-0.5-0.9-0.5-0.9 0.1z"/>
    <path class="s0" d="m143.1 384.2c1.3 1.4 3.8 3.2 8.7 4.5 0.6 0.2 0.8 1 0.3 1.3-1.2 0.8-3.3 1.8-6.2 1.5-3.2-0.3-3.9-4.1-4-6.8 0-0.7 0.8-1 1.3-0.5z"/>
    <path class="s0" d="m142.8 393c0.5 1 1 2.4 1.4 3.4 0.2 0.6 0.8 0.9 1.4 0.7 1.3-0.5 3.6-1.6 5.4-3.9 0.3-0.3 0-0.8-0.5-0.8-1.7 0.3-4.9 0.7-7-0.1-0.4-0.1-0.8 0.2-0.6 0.6z"/>
    <path class="s0" d="m146.1 399.7c1.5-1 4.8-3.1 6.3-4.8 0.3-0.4 1-0.2 1.1 0.3 0.4 1.5 0.8 3.8 0.4 5.7-0.3 1.5-1.8 2.5-3.3 2.2-1.3-0.3-3.2-0.9-4.6-2.1-0.4-0.3-0.3-1 0.1-1.3z"/>
    <path class="s0" d="m146.6 403.7c1.1 0.7 3.1 1.9 5.2 2.2 1 0.1 1.7 0.9 1.8 1.8 0.1 1.1 0.2 2.7 0.2 4-0.1 1.2-1.2 1.9-2.3 1.5-3.1-1.1-9-3.6-8.6-7.1 0 0 0.2-1.5 1.6-2.5 0.7-0.4 1.5-0.4 2.2 0z"/>
    <path class="s0" d="m144.6 411.8l8.8 4.9c0.4 0.2 0.6 0.6 0.6 1v7.2c0 1-1.1 1.6-1.9 1l-7.7-5.8c-0.8-0.6-1.3-1.4-1.5-2.3-0.3-1.3-0.5-3.1-0.1-5.1 0.2-0.8 1.1-1.2 1.8-0.8z"/>
    <path class="s0" d="m145.2 423.3l7.4 5.8c0.8 0.6 1.2 1.6 1.2 2.5v2.5c0 2.1-2.4 3.2-4 1.8l-5.9-5.2c-0.7-0.7-1.2-1.6-1.2-2.6v-3.6c0-1.3 1.5-2 2.5-1.2z"/>
    <path class="s0" d="m141 433.4c0.2-1.2 1.7-1.7 2.6-0.9l6.3 5.4c0 0 5.2 4.5 5.2 13.9v10.1c0 2.7-3.3 4.1-5.2 2.1l-8-8.3c-1.1-1.2-1.6-2.8-1.4-4.4 0.2-1 0.5-2 1.1-2.7 1.1-1.1 1-2.6 0.4-3.8-0.9-1.7-1.5-3.6-1.5-5.5 0-1.7 0.1-3.7 0.5-5.9z"/>
    <!-- Left obliques / serratus -->
    <path class="s0" d="m268.3 371.6c0.3 7.6 0.4 25.9-4.3 36.8-0.2 0.5-1 0.5-1.1-0.1-0.7-3-2-9.6-0.7-13.8 0.6-1.8 1.1-3.6 1.5-5.5l3.8-17.5c0.1-0.5 0.9-0.5 0.9 0.1z"/>
    <path class="s0" d="m260.9 384.2c-1.3 1.4-3.8 3.2-8.7 4.5-0.6 0.2-0.8 1-0.3 1.3 1.2 0.8 3.3 1.8 6.2 1.5 3.2-0.3 3.9-4.1 4-6.8 0-0.7-0.8-1-1.3-0.5z"/>
    <path class="s0" d="m261.3 393c-0.5 1-1 2.4-1.4 3.4-0.2 0.6-0.8 0.9-1.4 0.7-1.3-0.5-3.6-1.6-5.4-3.9-0.3-0.3 0-0.8 0.5-0.8 1.7 0.3 4.9 0.7 7-0.1 0.4-0.1 0.8 0.2 0.6 0.6z"/>
    <path class="s0" d="m258 399.7c-1.5-1-4.8-3.1-6.3-4.8-0.3-0.4-1-0.2-1.1 0.3-0.4 1.5-0.8 3.8-0.4 5.7 0.3 1.5 1.8 2.5 3.3 2.2 1.3-0.3 3.2-0.9 4.6-2.1 0.4-0.3 0.3-1-0.1-1.3z"/>
    <path class="s0" d="m257.5 403.7c-1.1 0.7-3.1 1.9-5.2 2.2-1 0.1-1.7 0.9-1.8 1.8-0.1 1.1-0.2 2.7-0.2 4 0.1 1.2 1.2 1.9 2.3 1.5 3.1-1.1 9-3.6 8.6-7.1 0 0-0.2-1.5-1.6-2.5-0.7-0.4-1.5-0.4-2.2 0z"/>
    <path class="s0" d="m259.4 411.8l-8.8 4.9c-0.4 0.2-0.6 0.6-0.6 1v7.2c0 1 1.1 1.6 1.9 1l7.7-5.8c0.8-0.6 1.3-1.4 1.5-2.3 0.3-1.3 0.5-3.1 0.1-5.1-0.2-0.8-1.1-1.2-1.8-0.8z"/>
    <path class="s0" d="m258.9 423.3l-7.4 5.8c-0.8 0.6-1.2 1.6-1.2 2.5v2.5c0 2.1 2.4 3.2 4 1.8l5.9-5.2c0.7-0.7 1.2-1.6 1.2-2.6v-3.6c0-1.3-1.5-2-2.5-1.2z"/>
    <path class="s0" d="m263 433.4c-0.2-1.2-1.7-1.7-2.6-0.9l-6.3 5.4c0 0-5.2 4.5-5.2 13.9v10.1c0 2.7 3.3 4.1 5.2 2.1l8-8.3c1.1-1.2 1.6-2.8 1.4-4.4-0.2-1-0.5-2-1.1-2.7-1.1-1.1-1-2.6-0.4-3.8 0.9-1.7 1.5-3.6 1.5-5.5 0-1.7-0.1-3.7-0.5-5.9z"/>
  </g>

  <!-- QUADS -->
  <g id="quads">
    <!-- Right inner quad -->
    <path class="s0" d="m171.5 501.1l0.2 0.1c1.4 1 2.4 2.6 2.6 4.3 0.3 3 0.6 8.1-0.4 13.8l-3.9 24.9c-0.1 0.4-0.7 0.4-0.7 0q0-0.2-0.1-0.4c-1-6.2-1.1-12.6-0.3-18.8 0.6-4.6 1.2-12.6-0.1-22.3-0.2-1.5 1.5-2.5 2.7-1.7z"/>
    <path class="s0" d="m133.5 504.5c-0.9 2.7-1.6 7.3-1.5 10.1l0.6 22.9c0.2 6.4 1.3 12.7 3.5 18.7 1.6 4.5 3.7 9.7 6.1 13.5 0.3 0.5 1 0.3 1.1-0.2 0.3-2.2 0.9-6.3 0.6-9.5-0.2-2.8-2.8-9.5-4.9-14.2-2.1-5-3.6-10.3-4.3-15.7-0.7-5.6-1.2-13.1-0.3-21l0.5-4.1c0.1-0.9-1.1-1.1-1.4-0.3z"/>
    <!-- Left inner quad -->
    <path class="s0" d="m232.6 501.1l-0.2 0.1c-1.4 1-2.4 2.6-2.6 4.3-0.3 3-0.6 8.1 0.4 13.8l3.9 24.9c0.1 0.4 0.7 0.4 0.7 0q0-0.2 0.1-0.4c1-6.2 1.1-12.6 0.3-18.8-0.6-4.6-1.2-12.6 0.1-22.3 0.2-1.5-1.5-2.5-2.7-1.7z"/>
    <path class="s0" d="m270.6 504.5c0.9 2.7 1.6 7.3 1.5 10.1l-0.6 22.9c-0.2 6.4-1.3 12.7-3.5 18.7-1.6 4.5-3.7 9.7-6.1 13.5-0.3 0.5-1 0.3-1.1-0.2-0.3-2.2-0.9-6.3-0.6-9.5 0.2-2.8 2.8-9.5 4.9-14.2 2.1-5 3.6-10.3 4.3-15.7 0.7-5.6 1.2-13.1 0.3-21l-0.5-4.1c-0.1-0.9 1.1-1.1 1.4-0.3z"/>
  </g>

  <!-- CALVES -->
  <g id="calves">
    <!-- Right calf group -->
    <path class="s0" d="m158.8 531.5c1.9 6.9 5.9 22.7 5.8 31.5-0 2.5-1 4.9-2.6 6.7l-2.5 2.7c-1.1 1.2-3.1 1.3-4.3 0.1-0.5-0.6-1-1.4-1.4-2.6-0.5-1.5-0.7-3.2-0.8-5-0.2-4 0.3-8.1 1.4-11.9 1.3-4.5 3.2-12.6 3.4-21.4 0-0.5 0.8-0.6 0.9-0.1z"/>
    <path class="s0" d="m163.6 574.1c0-0.3-0.4-0.3-0.4-0.1-0.7 2.1-2.3 6.3-4.4 9.5-0.3 0.4-0.1 1 0.4 1.2 0.6 0.2 0.9 0.8 0.7 1.4-0.1 0.7-0.3 1.6-0.6 2.6-0.1 0.4 0.5 0.7 0.7 0.3l1.9-3.2c1.1-1.8 1.6-3.8 1.6-5.9z"/>
    <path class="s0" d="m159.6 602.7c0.1 2 0.4 5.4 1.4 8.7 1.4 4.7 2.2 9.6 2.2 14.5-0 3.9-0.4 8.3-1.5 12.5-0.3 1.2-1.8 1.7-2.8 1-2.5-1.9-6.3-6.5-6.2-17.2 0 0-0.7-10 5.8-19.8 0.4-0.5 1.2-0.3 1.2 0.3z"/>
    <path class="s0" d="m155.4 638c0.8 1.1 1.9 2.3 3.4 3.1 0.8 0.4 1.2 1.4 1 2.2q-0.1 0.4-0.2 0.8-1.6 6.1-2.4 12.4l-0.6 4.8c-0.1 0.5-0.8 0.5-0.9 0-0.5-3.6-1.3-10.7-1.6-22.9 0-0.7 0.9-1 1.3-0.5z"/>
    <path class="s0" d="m141.6 587.3c0-0.8-1.1-1-1.4-0.3-1.3 2.7-3.1 8-2.4 15.9 0 0 2.4 35.7 12.5 60.4 0.3 0.8 1.6 0.5 1.5-0.4l-7.8-52.6c0 0-2.1-12.2-2.4-23.1z"/>
    <path class="s0" d="m137 606.1c-0.2-0.7-1.3-0.6-1.2 0.2 0.4 9.1 1.9 31.2 8.2 46.7 0 0 3.7 10.9 4.9 17.6 0.1 0.5 0.8 0.4 0.8 0-0.2-1.7 0.2-3.9-0.5-5.7l-3.2-10.2-2-7.5c-2.4-9.2-4.7-18.5-5.8-27.9-0.6-5-0.2-8.8-1.3-13.1z"/>
    <path class="s0" d="m134.8 616c-0.1-0.5-0.9-0.5-0.9 0.1 0.2 5.2 1.1 14.4 4.1 26.1 0 0 3.4 17 4.4 25.8 0.1 0.4 0.7 0.4 0.7 0 0.2-3.2 0.1-8.1-1.1-13.6 0 0-5-26.8-7.3-38.3z"/>
    <!-- Left calf group -->
    <path class="s0" d="m245.3 531.5c-1.9 6.9-5.9 22.7-5.8 31.5 0 2.5 1 4.9 2.6 6.7l2.5 2.7c1.1 1.2 3.1 1.3 4.3 0.1 0.5-0.6 1-1.4 1.4-2.6 0.5-1.5 0.7-3.2 0.8-5 0.2-4-0.3-8.1-1.4-11.9-1.3-4.5-3.2-12.6-3.4-21.4 0-0.5-0.8-0.6-0.9-0.1z"/>
    <path class="s0" d="m240.5 574.1c0-0.3 0.4-0.3 0.4-0.1 0.7 2.1 2.3 6.3 4.4 9.5 0.3 0.4 0.1 1-0.4 1.2-0.6 0.2-0.9 0.8-0.7 1.4 0.1 0.7 0.3 1.6 0.6 2.6 0.1 0.4-0.5 0.7-0.7 0.3l-1.9-3.2c-1.1-1.8-1.6-3.8-1.6-5.9z"/>
    <path class="s0" d="m244.5 602.7c-0.1 2-0.4 5.4-1.4 8.7-1.4 4.7-2.2 9.6-2.2 14.5 0 3.9 0.4 8.3 1.5 12.5 0.3 1.2 1.8 1.7 2.8 1 2.5-1.9 6.3-6.5 6.2-17.2 0 0 0.7-10-5.8-19.8-0.4-0.5-1.2-0.3-1.2 0.3z"/>
    <path class="s0" d="m248.7 638c-0.8 1.1-1.9 2.3-3.4 3.1-0.8 0.4-1.2 1.4-1 2.2q0.1 0.4 0.2 0.8 1.6 6.1 2.4 12.4l0.6 4.8c0.1 0.5 0.8 0.5 0.9 0 0.5-3.6 1.3-10.7 1.6-22.9 0-0.7-0.9-1-1.3-0.5z"/>
    <path class="s0" d="m262.5 587.3c0-0.8 1.1-1 1.4-0.3 1.3 2.7 3.1 8 2.4 15.9 0 0-2.4 35.7-12.5 60.4-0.3 0.8-1.6 0.5-1.5-0.4l7.8-52.6c0 0 2.1-12.2 2.4-23.1z"/>
    <path class="s0" d="m267.1 606.1c0.2-0.7 1.3-0.6 1.2 0.2-0.4 9.1-1.9 31.2-8.2 46.7 0 0-3.7 10.9-4.9 17.6-0.1 0.5-0.8 0.4-0.8 0 0.2-1.7-0.2-3.9 0.5-5.7l3.2-10.2 2-7.5c2.4-9.2 4.7-18.5 5.8-27.9 0.6-5 0.2-8.8 1.3-13.1z"/>
    <path class="s0" d="m269.3 616c0.1-0.5 0.9-0.5 0.9 0.1-0.2 5.2-1.1 14.4-4.1 26.1 0 0-3.4 17-4.4 25.8-0.1 0.4-0.7 0.4-0.7 0-0.2-3.2-0.1-8.1 1.1-13.6 0 0 5-26.8 7.3-38.3z"/>
  </g>
</svg>
