<svg version="1.2" xmlns="http://www.w3.org/2000/svg" viewBox="0 0 1920 1080" width="711" height="400">
	<style>
		.s0 { fill: #575756 } 
	</style>
	<g id="&lt;Group&gt; copy 5">
		<g id="right-side">
			<g id="&lt;Group&gt;">
				<path id="&lt;Path&gt;" class="s0" d="m1075.72 321.81c-0.91-2.2-2.8-3.51-4.35-3.13 0.9 0.72 1.91 2.19 2.68 4.04 0.67 1.62 1 3.15 1 4.28 1.23-0.91 1.55-3.09 0.67-5.19z"/>
			</g>
			<path id="&lt;Path&gt;" class="s0" d="m1064.75 316.88l6.2 22.89c0.08 0.31-0.33 0.5-0.51 0.23-1.55-2.4-4.6-7.32-6.37-11.42-0.75-1.76-0.99-3.69-0.66-5.57 0.29-1.6 0.61-3.82 0.7-6.05 0.01-0.38 0.54-0.45 0.64-0.08z"/>
			<path id="&lt;Path&gt;" class="s0" d="m1063.92 331.75v5.49c0 2.11 1.14 4.06 2.99 5.09q0.86 0.49 1.94 0.82c0.54 0.16 1.03-0.4 0.8-0.91-0.8-1.85-2.54-5.72-5.07-10.65-0.17-0.32-0.66-0.2-0.66 0.16z"/>
			<path id="&lt;Path&gt;" class="s0" d="m1061.27 329.31l-2.17 9.25q-0.43 1.84-0.43 3.74c0 0.92 0.97 1.52 1.79 1.09 1.1-0.59 1.78-1.76 1.73-3.01l-0.42-11.03c-0.01-0.29-0.44-0.33-0.5-0.04z"/>
			<path id="&lt;Path&gt;" class="s0" d="m1059.52 330.68c-1.56 1.74-5.34 4.97-13.39 7.35-0.64 0.19-0.71 1.07-0.1 1.34 1.57 0.72 4.12 1.73 7.15 2.42 1.56 0.35 3.16-0.48 3.8-1.95 0.83-1.92 1.99-4.92 3.07-8.87 0.08-0.32-0.31-0.54-0.53-0.29z"/>
			<path id="&lt;Path&gt;" class="s0" d="m1051.61 343.96c-1.69-0.66-4.42-1.92-8.43-4.28-1.35-0.8-2.95-1.11-4.5-0.86-5.05 0.82-15.96 3.88-19.27 15.24q-0.49 1.71-0.49 3.49v0.07c0 2.27 0.57 4.5 1.69 6.47 1.12 1.98 2.48 4.7 3.04 7.09 0.25 1.06 1.44 1.59 2.37 1.02 1.31-0.79 3.03-2.08 4.59-3.99 1.89-2.32 2.97-5.22 3.21-8.21 0.33-4.22 2.77-13.59 17.65-15.14 0.48-0.06 0.59-0.72 0.14-0.9z"/>
			<path id="&lt;Path&gt;" class="s0" d="m1016.53 358.85q-0.17 0.96-0.34 2.28c-0.56 4.33-0.57 8.72-0.05 13.06 0.19 1.68 0.37 3.71 0.36 5.51 0 0.78 0.96 1.15 1.48 0.56l4.05-4.55c0.48-0.53 0.55-1.31 0.19-1.92-1.32-2.29-4.38-8.18-5.04-14.9-0.04-0.39-0.59-0.43-0.65-0.04z"/>
			<path id="&lt;Path&gt;" class="s0" d="m1025.23 375.61c0.24-0.42-0.31-0.85-0.65-0.51-3.86 3.72-11.95 12.82-12.13 23.76-0.17 9.92 1.47 16.16 2.51 19.08 0.12 0.36 0.66 0.26 0.64-0.13-0.31-6.05-0.29-24.4 9.63-42.2z"/>
			<path id="&lt;Path&gt;" class="s0" d="m1032.03 368.51c0.64-0.87 2.02-0.52 2.12 0.56 0.53 5.73 1.25 18.55-2.1 25.16-3.33 6.56-9.59 16.95-12.43 21.6-0.44 0.73-1.56 0.42-1.57-0.43-0.07-7.62 0.98-29.24 13.98-46.89z"/>
			<path id="&lt;Path&gt;" class="s0" d="m1022.01 419.47c1.07 1.56 2.83 4.42 3.75 7.38 0.2 0.63 1.11 0.59 1.26-0.06 0.43-1.85 0.9-4.31 0.94-6.17 0.03-1.58 0.11-3.16 0.34-4.73 0.5-3.45 1.34-8.02 3.26-12.2 0.68-1.49 1.7-3.28 2.3-4.97 0.45-1.24 1.45-3.61-0.03-4.38 0 0-5.72 13.93-11.81 22.64-0.52 0.75-0.53 1.73-0.01 2.49z"/>
			<path id="&lt;Path&gt;" class="s0" d="m1012.04 412.48c-0.34-1.39-2.11-1.84-3.05-0.76-3.2 3.68-9.01 13.25-8.66 34.07 0 0 0.27 17.05-0.39 25.09-0.03 0.35 0.46 0.46 0.57 0.13 3.35-9.85 14.77-45.07 11.53-58.53z"/>
			<path id="&lt;Path&gt;" class="s0" d="m1020.69 421.77c0.57 1.21 1.08 2.91 0.84 4.91-0.11 0.91-0.43 1.78-0.84 2.6-1.56 3.1-7.29 15.19-16.66 42.19-0.12 0.35-0.64 0.22-0.57-0.14 2.11-10.88 8.36-40.87 14.62-49.78 0.66-0.95 2.11-0.82 2.61 0.22z"/>
			<path id="&lt;Path&gt;" class="s0" d="m1022.12 430.68c0.39-0.92 1.71-0.92 2.07 0.01 0.79 1.98 1.37 5.25-0.46 9.4 0 0-12.64 27.87-15.82 35.46-0.14 0.31-0.61 0.19-0.57-0.15 0.5-4.3 2.96-16.72 14.78-44.72z"/>
			<path id="chest1" class="s0" d="m1065.28 345.69c-7.72-0.38-25.04 0.07-28.89 11.16-0.85 2.43-0.84 5.07-0.18 7.55 1.64 6.21 6.84 21.93 17.64 23.17 5.01 0.58 8.91 0.4 11.85-0.06 4.28-0.66 7.63-4.01 8.32-8.29 1.22-7.64 2.38-20.91-2.26-29.47-1.3-2.39-3.76-3.93-6.48-4.06z"/>
			<path id="abs1" class="s0" d="m1075.17 398.18c0.03-2-0.13-5.77-1.49-8.73-0.43-0.92-1.43-1.43-2.43-1.27l-7.69 1.22c-2.16 0.35-4.17 1.44-5.48 3.19-0.77 1.04-1.36 2.37-1.32 4l0.38 11.11c0.04 1.31 1.52 2.05 2.59 1.28 2.99-2.15 8.36-5.79 14.18-8.8 0.76-0.39 1.24-1.15 1.26-2z"/>
			<path id="abs3" class="s0" d="m1075.66 406.96v9.61c0 1.52-0.58 3.03-1.69 4.07-0.53 0.49-1.17 0.87-1.88 0.91 0 0-5.16 0.1-10.23 1.54-1.69 0.48-3.51-0.22-4.46-1.7-0.61-0.95-1.06-2.22-0.92-3.86 0.07-0.93 0.47-1.79 1.09-2.49 2.34-2.61 9.22-9.96 14.05-11.24 2.04-0.55 4.04 1.04 4.04 3.16z"/>
			<path id="abs5" class="s0" d="m1056.76 433.68c0 1.35 0.41 2.69 1.28 3.73 0.87 1.03 2.31 1.97 4.67 1.97h6.53c1.13 0 2.27-0.17 3.34-0.56 1.46-0.53 3.08-1.53 3.08-3.36v-8.16c0 0 0-4.06-4.16-4.06 0 0-14.74 0.81-14.74 6.16z"/>
			<path id="abs7" class="s0" d="m1057.02 443.24c1.07 7.96 5.57 36.39 16.1 43.87 1.06 0.76 2.54-0.05 2.54-1.35v-37.64c0-1.02-0.43-2-1.22-2.64-0.71-0.58-1.54-1.48-1.96-2.71-0.32-0.92-1.22-1.52-2.2-1.46-2.52 0.17-7.11 0.38-11.46 0.05-1.07-0.08-1.94 0.82-1.8 1.88z"/>
			<path id="&lt;Path&gt;" class="s0" d="m1035.77 371.62c-0.28 7.62-0.37 25.92 4.35 36.76 0.23 0.53 1.01 0.46 1.14-0.11 0.72-3.04 1.99-9.61 0.73-13.78-0.55-1.82-1.12-3.64-1.52-5.5l-3.79-17.45c-0.11-0.53-0.89-0.47-0.91 0.08z"/>
			<path id="&lt;Path&gt;" class="s0" d="m1043.14 384.16c1.26 1.38 3.75 3.18 8.68 4.5 0.61 0.16 0.77 0.96 0.25 1.32-1.17 0.82-3.26 1.82-6.24 1.51-3.14-0.32-3.86-4.13-3.97-6.8-0.03-0.7 0.82-1.04 1.28-0.53z"/>
			<path id="&lt;Path&gt;" class="s0" d="m1042.82 393.02c0.45 1.01 1.04 2.39 1.35 3.41 0.17 0.58 0.79 0.89 1.36 0.67 1.34-0.51 3.59-1.64 5.35-3.88 0.26-0.34-0.04-0.83-0.46-0.75-1.7 0.31-4.92 0.73-7-0.06-0.39-0.14-0.77 0.23-0.6 0.61z"/>
			<path id="&lt;Path&gt;" class="s0" d="m1046.08 399.65c1.54-0.96 4.81-3.09 6.34-4.8 0.34-0.38 0.96-0.23 1.08 0.26 0.35 1.45 0.77 3.84 0.39 5.73-0.31 1.52-1.78 2.49-3.3 2.17-1.34-0.28-3.18-0.87-4.62-2.11-0.39-0.34-0.33-0.97 0.11-1.25z"/>
			<path id="&lt;Path&gt;" class="s0" d="m1046.55 403.68c1.08 0.72 3.07 1.87 5.2 2.16 0.95 0.12 1.71 0.85 1.81 1.81 0.13 1.14 0.24 2.66 0.15 4.04-0.08 1.15-1.21 1.92-2.29 1.53-3.13-1.09-8.96-3.62-8.64-7.11 0 0 0.16-1.48 1.6-2.45 0.65-0.44 1.51-0.42 2.17 0.02z"/>
			<path id="&lt;Path&gt;" class="s0" d="m1044.63 411.84l8.79 4.86c0.38 0.21 0.62 0.61 0.62 1.04v7.15c0 0.99-1.13 1.55-1.92 0.96l-7.73-5.84c-0.75-0.57-1.27-1.39-1.45-2.32-0.26-1.25-0.47-3.14-0.06-5.06 0.17-0.79 1.05-1.18 1.75-0.79z"/>
			<path id="&lt;Path&gt;" class="s0" d="m1045.2 423.26l7.36 5.76c0.78 0.61 1.23 1.55 1.23 2.54v2.51c0 2.07-2.43 3.17-3.98 1.8l-5.94-5.22c-0.73-0.65-1.15-1.57-1.15-2.55v-3.63c0-1.28 1.47-2 2.48-1.21z"/>
			<path id="&lt;Path&gt;" class="s0" d="m1041.02 433.39c0.24-1.19 1.68-1.68 2.59-0.88l6.26 5.44c0 0 5.23 4.52 5.23 13.9v10.06c0 2.73-3.32 4.07-5.21 2.1l-8-8.32c-1.12-1.16-1.63-2.79-1.36-4.38 0.18-1 0.51-2.03 1.14-2.67 1.07-1.06 0.95-2.63 0.35-3.81-0.88-1.72-1.47-3.57-1.52-5.5-0.03-1.65 0.07-3.7 0.52-5.94z"/>
			<path id="&lt;Path&gt;" class="s0" d="m1039.86 460.39c-0.24-0.73-1.28-0.71-1.48 0.03-0.84 3.07-2.17 8.79-2.53 15.31 0 0-0.89 9.57-2.47 14.98-0.98 3.35-1.58 6.81-1.55 10.3q0.01 0.08 0.01 0.16c0.01 1.03 1.49 1.21 1.77 0.22l2.6-9.19q1.57-5.53 3.46-10.96 0.03-0.1 0.07-0.2c2.29-6.6 2.36-13.78 0.19-20.43z"/>
			<path id="&lt;Path&gt;" class="s0" d="m1071.49 501.09l0.19 0.14c1.42 1.02 2.36 2.6 2.55 4.34 0.33 2.98 0.59 8.06-0.42 13.77l-3.93 24.93c-0.07 0.42-0.67 0.43-0.74 0.01q-0.03-0.2-0.06-0.41c-1.01-6.23-1.1-12.58-0.25-18.84 0.63-4.57 1.24-12.61-0.07-22.29-0.2-1.51 1.49-2.54 2.73-1.65z"/>
			<path id="&lt;Path&gt;" class="s0" d="m1048.68 465.76l2.7 4.25q0.39 0.62 0.39 1.35v5.59c0 0.61-0.83 0.81-1.09 0.25-0.94-2.04-2.24-5.69-2.77-11.17-0.04-0.43 0.53-0.63 0.77-0.27z"/>
			<path id="&lt;Path&gt;" class="s0" d="m1054.06 473.03l1.79 2.22c0.83 1.03 1.28 2.32 1.26 3.64-0.04 2.11-0.44 5.41-2.25 8.45-0.28 0.47-1 0.34-1.1-0.2-0.41-2.36-1.1-7.44-0.88-13.71 0.02-0.61 0.79-0.88 1.18-0.4z"/>
			<path id="&lt;Path&gt;" class="s0" d="m1059.92 480.31q0.19 0.2 0.41 0.41c1.55 1.56 2.19 3.8 1.68 5.94-0.68 2.85-1.91 6.8-3.92 9.41-0.48 0.63-1.49 0.34-1.6-0.44l-0.73-4.88c-0.11-0.76 0.03-1.53 0.42-2.19 0.91-1.51 2.51-4.62 2.66-7.83 0.02-0.55 0.69-0.81 1.08-0.42z"/>
			<path id="&lt;Path&gt;" class="s0" d="m1044.47 463.73l0.22 0.26q0.78 0.96 1.15 2.15l8.55 28.19q2.13 6.99 4.59 13.87c3.14 8.84 9.03 28.21 7.62 46.08-0.03 0.37-0.56 0.39-0.62 0.03-0.88-6.09-3.63-21.86-10.26-38.18 0 0-10.04-27.89-12.73-51.78-0.09-0.83 0.95-1.27 1.48-0.62z"/>
			<path id="&lt;Path&gt;" class="s0" d="m1043.74 479.55c-0.2-0.97-1.56-1.01-1.82-0.06-2 7.38-6.11 24.4-6.25 40.03 0 0 0.18 13.54 2.32 18.71l8.29 20.25c0.75 1.84 3.29 2.02 4.27 0.29 0.94-1.63 1.86-3.73 2.28-6.1 0 0 2.04-8.2 3.14-16.61 0.9-6.84 0.17-13.79-2.03-20.34-2.83-8.39-7.46-23.03-10.2-36.17z"/>
			<path id="&lt;Path&gt;" class="s0" d="m1033.51 504.53c-0.92 2.71-1.6 7.26-1.53 10.11l0.62 22.87c0.17 6.36 1.33 12.66 3.47 18.65 1.61 4.51 3.71 9.65 6.06 13.52 0.29 0.49 1.04 0.34 1.13-0.23 0.34-2.19 0.86-6.27 0.61-9.48-0.21-2.82-2.83-9.45-4.85-14.22-2.12-5.03-3.58-10.31-4.27-15.73-0.71-5.64-1.17-13.09-0.32-21.03l0.47-4.14c0.1-0.86-1.12-1.13-1.39-0.32z"/>
			<path id="&lt;Path&gt;" class="s0" d="m1058.81 531.52c1.89 6.87 5.93 22.65 5.84 31.54-0.02 2.48-0.97 4.86-2.64 6.69l-2.46 2.71c-1.14 1.24-3.14 1.34-4.28 0.11-0.52-0.56-1.02-1.39-1.42-2.59-0.48-1.45-0.72-3.23-0.82-5.01-0.23-4.02 0.32-8.05 1.44-11.92 1.29-4.49 3.24-12.62 3.42-21.42 0.01-0.54 0.78-0.64 0.92-0.11z"/>
			<path id="&lt;Path&gt;" class="s0" d="m1063.57 574.14c0-0.26-0.36-0.32-0.44-0.08-0.71 2.12-2.28 6.33-4.36 9.53-0.28 0.43-0.09 1 0.37 1.2 0.55 0.23 0.86 0.83 0.74 1.42-0.14 0.66-0.33 1.59-0.56 2.64-0.09 0.43 0.49 0.66 0.72 0.28l1.9-3.18c1.06-1.78 1.63-3.81 1.63-5.88z"/>
			<path id="&lt;Path&gt;" class="s0" d="m1059.58 602.68c0.09 2.03 0.39 5.36 1.36 8.71 1.37 4.71 2.21 9.57 2.17 14.47-0.03 3.87-0.39 8.33-1.49 12.53-0.32 1.21-1.78 1.7-2.78 0.95-2.5-1.89-6.29-6.52-6.23-17.16 0 0-0.72-9.99 5.78-19.82 0.35-0.53 1.17-0.3 1.19 0.32z"/>
			<path id="&lt;Path&gt;" class="s0" d="m1055.35 637.99c0.78 1.08 1.9 2.29 3.36 3.1 0.79 0.44 1.18 1.37 0.95 2.24q-0.1 0.38-0.21 0.82-1.6 6.1-2.35 12.36l-0.57 4.82c-0.06 0.52-0.81 0.54-0.88 0.02-0.52-3.57-1.29-10.66-1.64-22.91-0.02-0.73 0.91-1.04 1.34-0.45z"/>
			<path id="&lt;Path&gt;" class="s0" d="m1041.59 587.32c-0.02-0.78-1.06-0.99-1.4-0.29-1.33 2.73-3.06 7.97-2.38 15.9 0 0 2.44 35.67 12.48 60.42 0.34 0.84 1.6 0.5 1.46-0.39l-7.81-52.55c0 0-2.05-12.22-2.35-23.09z"/>
			<path id="&lt;Path&gt;" class="s0" d="m1036.98 606.05c-0.18-0.73-1.28-0.59-1.24 0.17 0.38 9.09 1.93 31.17 8.2 46.67 0 0 3.7 10.94 4.88 17.62 0.08 0.47 0.77 0.44 0.81-0.03 0.17-1.69 0.18-3.86-0.47-5.71l-3.15-10.16-1.99-7.53c-2.43-9.19-4.68-18.47-5.75-27.91-0.57-5.03-0.2-8.75-1.29-13.12z"/>
			<path id="&lt;Path&gt;" class="s0" d="m1034.77 616.03c-0.1-0.54-0.9-0.45-0.88 0.1 0.24 5.24 1.12 14.44 4.1 26.07 0 0 3.36 17.05 4.43 25.78 0.05 0.44 0.7 0.42 0.72-0.03 0.16-3.23 0.09-8.12-1.11-13.63 0 0-5.03-26.8-7.26-38.29z"/>
		</g>
		<g id="left-side">
			<g id="&lt;Group&gt;">
				<path id="&lt;Path&gt;" class="s0" d="m1078.35 321.81c0.91-2.2 2.79-3.51 4.35-3.13-0.9 0.72-1.91 2.19-2.68 4.04-0.67 1.62-1.01 3.15-1 4.28-1.23-0.91-1.55-3.09-0.67-5.19z"/>
			</g>
			<path id="&lt;Path&gt;" class="s0" d="m1089.31 316.88l-6.19 22.89c-0.08 0.31 0.33 0.5 0.51 0.23 1.55-2.4 4.6-7.32 6.36-11.42 0.76-1.76 1-3.69 0.66-5.57-0.28-1.6-0.6-3.82-0.69-6.05-0.02-0.38-0.55-0.45-0.65-0.08z"/>
			<path id="&lt;Path&gt;" class="s0" d="m1090.14 331.75v5.49c0 2.11-1.13 4.06-2.98 5.09q-0.86 0.49-1.95 0.82c-0.54 0.16-1.02-0.4-0.8-0.91 0.81-1.85 2.54-5.72 5.08-10.65 0.16-0.32 0.65-0.2 0.65 0.16z"/>
			<path id="&lt;Path&gt;" class="s0" d="m1092.8 329.31l2.17 9.25q0.43 1.84 0.43 3.74c0 0.92-0.97 1.52-1.79 1.09-1.11-0.59-1.78-1.76-1.73-3.01l0.42-11.03c0.01-0.29 0.43-0.33 0.5-0.04z"/>
			<path id="&lt;Path&gt;" class="s0" d="m1094.55 330.68c1.55 1.74 5.33 4.97 13.39 7.35 0.64 0.19 0.7 1.07 0.1 1.34-1.58 0.72-4.12 1.73-7.15 2.42-1.56 0.35-3.16-0.48-3.8-1.95-0.83-1.92-2-4.92-3.07-8.87-0.09-0.32 0.31-0.54 0.53-0.29z"/>
			<path id="&lt;Path&gt;" class="s0" d="m1102.46 343.96c1.69-0.66 4.42-1.92 8.42-4.28 1.36-0.8 2.95-1.11 4.51-0.86 5.05 0.82 15.96 3.88 19.27 15.24q0.49 1.71 0.49 3.49v0.07c0 2.27-0.57 4.5-1.69 6.47-1.12 1.98-2.49 4.7-3.05 7.09-0.24 1.06-1.44 1.59-2.37 1.02-1.3-0.79-3.03-2.08-4.58-3.99-1.89-2.32-2.97-5.22-3.21-8.21-0.33-4.22-2.77-13.59-17.65-15.14-0.49-0.06-0.6-0.72-0.14-0.9z"/>
			<path id="&lt;Path&gt;" class="s0" d="m1137.54 358.85q0.17 0.96 0.34 2.28c0.55 4.33 0.56 8.72 0.05 13.06-0.2 1.68-0.37 3.71-0.36 5.51 0 0.78-0.96 1.15-1.48 0.56l-4.06-4.55c-0.47-0.53-0.55-1.31-0.19-1.92 1.33-2.29 4.39-8.18 5.05-14.9 0.04-0.39 0.58-0.43 0.65-0.04z"/>
			<path id="&lt;Path&gt;" class="s0" d="m1128.84 375.61c-0.24-0.42 0.3-0.85 0.65-0.51 3.86 3.72 11.95 12.82 12.13 23.76 0.17 9.92-1.47 16.16-2.51 19.08-0.13 0.36-0.67 0.26-0.65-0.13 0.32-6.05 0.3-24.4-9.62-42.2z"/>
			<path id="&lt;Path&gt;" class="s0" d="m1122.04 368.51c-0.64-0.87-2.02-0.52-2.12 0.56-0.53 5.73-1.25 18.55 2.1 25.16 3.33 6.56 9.58 16.95 12.43 21.6 0.44 0.73 1.56 0.42 1.57-0.43 0.07-7.62-0.98-29.24-13.98-46.89z"/>
			<path id="&lt;Path&gt;" class="s0" d="m1132.06 419.47c-1.07 1.56-2.83 4.42-3.76 7.38-0.19 0.63-1.1 0.59-1.25-0.06-0.43-1.85-0.9-4.31-0.94-6.17-0.04-1.58-0.11-3.16-0.34-4.73-0.5-3.45-1.34-8.02-3.26-12.2-0.68-1.49-1.71-3.28-2.31-4.97-0.44-1.24-1.44-3.61 0.03-4.38 0 0 5.73 13.93 11.82 22.64 0.52 0.75 0.52 1.73 0.01 2.49z"/>
			<path id="&lt;Path&gt;" class="s0" d="m1142.03 412.48c0.34-1.39 2.11-1.84 3.05-0.76 3.2 3.68 9.01 13.25 8.66 34.07 0 0-0.28 17.05 0.39 25.09 0.03 0.35-0.46 0.46-0.57 0.13-3.35-9.85-14.78-45.07-11.53-58.53z"/>
			<path id="&lt;Path&gt;" class="s0" d="m1133.38 421.77c-0.57 1.21-1.09 2.91-0.84 4.91 0.11 0.91 0.43 1.78 0.84 2.6 1.55 3.1 7.29 15.19 16.66 42.19 0.12 0.35 0.64 0.22 0.57-0.14-2.11-10.88-8.36-40.87-14.62-49.78-0.66-0.95-2.12-0.82-2.61 0.22z"/>
			<path id="&lt;Path&gt;" class="s0" d="m1131.95 430.68c-0.39-0.92-1.71-0.92-2.08 0.01-0.78 1.98-1.36 5.25 0.46 9.4 0 0 12.65 27.87 15.83 35.46 0.13 0.31 0.61 0.19 0.57-0.15-0.5-4.3-2.96-16.72-14.78-44.72z"/>
			<path id="chest2" class="s0" d="m1088.79 345.69c7.71-0.38 25.03 0.07 28.89 11.16 0.85 2.43 0.83 5.07 0.18 7.55-1.64 6.21-6.84 21.93-17.65 23.17-5 0.58-8.91 0.4-11.84-0.06-4.28-0.66-7.63-4.01-8.32-8.29-1.22-7.64-2.38-20.91 2.26-29.47 1.3-2.39 3.76-3.93 6.48-4.06z"/>
			<path id="abs2" class="s0" d="m1078.9 398.18c-0.03-2 0.12-5.77 1.49-8.73 0.43-0.92 1.43-1.43 2.43-1.27l7.69 1.22c2.16 0.35 4.17 1.44 5.47 3.19 0.78 1.04 1.36 2.37 1.32 4l-0.37 11.11c-0.04 1.31-1.52 2.05-2.59 1.28-3-2.15-8.36-5.79-14.19-8.8-0.75-0.39-1.24-1.15-1.25-2z"/>
			<path id="abs4" class="s0" d="m1078.41 406.96v9.61c0 1.52 0.57 3.03 1.69 4.07 0.53 0.49 1.16 0.87 1.88 0.91 0 0 5.16 0.1 10.22 1.54 1.7 0.48 3.52-0.22 4.47-1.7 0.61-0.95 1.06-2.22 0.92-3.86-0.08-0.93-0.48-1.79-1.09-2.49-2.34-2.61-9.23-9.96-14.05-11.24-2.05-0.55-4.04 1.04-4.04 3.16z"/>
			<path id="abs6" class="s0" d="m1097.3 433.68c0 1.35-0.4 2.69-1.28 3.73-0.87 1.03-2.31 1.97-4.66 1.97h-6.53c-1.14 0-2.28-0.17-3.35-0.56-1.45-0.53-3.07-1.53-3.07-3.36v-8.16c0 0 0-4.06 4.16-4.06 0 0 14.73 0.81 14.73 6.16z"/>
			<path id="abs8" class="s0" d="m1097.04 443.24c-1.06 7.96-5.57 36.39-16.09 43.87-1.07 0.76-2.54-0.05-2.54-1.35v-37.64c0-1.02 0.43-2 1.21-2.64 0.71-0.58 1.55-1.48 1.97-2.71 0.32-0.92 1.22-1.52 2.2-1.46 2.51 0.17 7.11 0.38 11.46 0.05 1.06-0.08 1.94 0.82 1.79 1.88z"/>
			<path id="&lt;Path&gt;" class="s0" d="m1118.3 371.62c0.28 7.62 0.37 25.92-4.35 36.76-0.23 0.53-1.01 0.46-1.14-0.11-0.72-3.04-1.99-9.61-0.74-13.78 0.56-1.82 1.13-3.64 1.53-5.5l3.78-17.45c0.12-0.53 0.9-0.47 0.92 0.08z"/>
			<path id="&lt;Path&gt;" class="s0" d="m1110.92 384.16c-1.25 1.38-3.74 3.18-8.67 4.5-0.61 0.16-0.77 0.96-0.25 1.32 1.17 0.82 3.26 1.82 6.23 1.51 3.15-0.32 3.87-4.13 3.98-6.8 0.03-0.7-0.82-1.04-1.29-0.53z"/>
			<path id="&lt;Path&gt;" class="s0" d="m1111.25 393.02c-0.46 1.01-1.04 2.39-1.35 3.41-0.18 0.58-0.79 0.89-1.36 0.67-1.34-0.51-3.6-1.64-5.35-3.88-0.26-0.34 0.04-0.83 0.46-0.75 1.7 0.31 4.92 0.73 7-0.06 0.39-0.14 0.77 0.23 0.6 0.61z"/>
			<path id="&lt;Path&gt;" class="s0" d="m1107.99 399.65c-1.55-0.96-4.81-3.09-6.34-4.8-0.34-0.38-0.96-0.23-1.08 0.26-0.35 1.45-0.77 3.84-0.39 5.73 0.31 1.52 1.78 2.49 3.3 2.17 1.34-0.28 3.18-0.87 4.62-2.11 0.39-0.34 0.33-0.97-0.11-1.25z"/>
			<path id="&lt;Path&gt;" class="s0" d="m1107.52 403.68c-1.08 0.72-3.07 1.87-5.2 2.16-0.95 0.12-1.71 0.85-1.82 1.81-0.12 1.14-0.23 2.66-0.14 4.04 0.07 1.15 1.2 1.92 2.29 1.53 3.12-1.09 8.96-3.62 8.64-7.11 0 0-0.16-1.48-1.6-2.45-0.66-0.44-1.52-0.42-2.17 0.02z"/>
			<path id="&lt;Path&gt;" class="s0" d="m1109.43 411.84l-8.78 4.86c-0.38 0.21-0.62 0.61-0.62 1.04v7.15c0 0.99 1.13 1.55 1.92 0.96l7.72-5.84c0.76-0.57 1.27-1.39 1.46-2.32 0.25-1.25 0.46-3.14 0.06-5.06-0.17-0.79-1.06-1.18-1.76-0.79z"/>
			<path id="&lt;Path&gt;" class="s0" d="m1108.87 423.26l-7.36 5.76c-0.78 0.61-1.23 1.55-1.23 2.54v2.51c0 2.07 2.43 3.17 3.98 1.8l5.94-5.22c0.73-0.65 1.15-1.57 1.15-2.55v-3.63c0-1.28-1.47-2-2.48-1.21z"/>
			<path id="&lt;Path&gt;" class="s0" d="m1113.05 433.39c-0.24-1.19-1.68-1.68-2.59-0.88l-6.27 5.44c0 0-5.22 4.52-5.22 13.9v10.06c0 2.73 3.32 4.07 5.21 2.1l8-8.32c1.12-1.16 1.63-2.79 1.35-4.38-0.17-1-0.5-2.03-1.14-2.67-1.06-1.06-0.94-2.63-0.34-3.81 0.87-1.72 1.47-3.57 1.51-5.5 0.04-1.65-0.06-3.7-0.51-5.94z"/>
			<path id="&lt;Path&gt;" class="s0" d="m1114.21 460.39c0.23-0.73 1.27-0.71 1.48 0.03 0.84 3.07 2.17 8.79 2.52 15.31 0 0 0.9 9.57 2.48 14.98 0.97 3.35 1.58 6.81 1.54 10.3q0 0.08 0 0.16c-0.02 1.03-1.49 1.21-1.78 0.22l-2.6-9.19q-1.56-5.53-3.45-10.96-0.04-0.1-0.07-0.2c-2.29-6.6-2.37-13.78-0.2-20.43z"/>
			<path id="&lt;Path&gt;" class="s0" d="m1082.58 501.09l-0.19 0.14c-1.43 1.02-2.36 2.6-2.56 4.34-0.33 2.98-0.59 8.06 0.42 13.77l3.94 24.93c0.07 0.42 0.66 0.43 0.73 0.01q0.04-0.2 0.07-0.41c1.01-6.23 1.1-12.58 0.25-18.84-0.63-4.57-1.25-12.61 0.06-22.29 0.21-1.51-1.48-2.54-2.72-1.65z"/>
			<path id="&lt;Path&gt;" class="s0" d="m1105.39 465.76l-2.7 4.25q-0.39 0.62-0.4 1.35v5.59c0 0.61 0.84 0.81 1.09 0.25 0.95-2.04 2.25-5.69 2.77-11.17 0.05-0.43-0.53-0.63-0.76-0.27z"/>
			<path id="&lt;Path&gt;" class="s0" d="m1100.01 473.03l-1.79 2.22c-0.83 1.03-1.28 2.32-1.26 3.64 0.04 2.11 0.44 5.41 2.25 8.45 0.28 0.47 1 0.34 1.1-0.2 0.41-2.36 1.1-7.44 0.88-13.71-0.02-0.61-0.79-0.88-1.18-0.4z"/>
			<path id="&lt;Path&gt;" class="s0" d="m1094.15 480.31q-0.2 0.2-0.41 0.41c-1.55 1.56-2.19 3.8-1.69 5.94 0.68 2.85 1.92 6.8 3.93 9.41 0.48 0.63 1.48 0.34 1.6-0.44l0.73-4.88c0.11-0.76-0.04-1.53-0.43-2.19-0.9-1.51-2.5-4.62-2.65-7.83-0.02-0.55-0.69-0.81-1.08-0.42z"/>
			<path id="&lt;Path&gt;" class="s0" d="m1109.6 463.73l-0.22 0.26q-0.79 0.96-1.15 2.15l-8.55 28.19q-2.13 6.99-4.59 13.87c-3.15 8.84-9.04 28.21-7.62 46.08 0.03 0.37 0.56 0.39 0.61 0.03 0.89-6.09 3.64-21.86 10.26-38.18 0 0 10.04-27.89 12.73-51.78 0.1-0.83-0.94-1.27-1.47-0.62z"/>
			<path id="&lt;Path&gt;" class="s0" d="m1110.33 479.55c0.2-0.97 1.56-1.01 1.82-0.06 2 7.38 6.11 24.4 6.24 40.03 0 0-0.18 13.54-2.31 18.71l-8.29 20.25c-0.75 1.84-3.29 2.02-4.28 0.29-0.93-1.63-1.85-3.73-2.28-6.1 0 0-2.03-8.2-3.13-16.61-0.9-6.84-0.17-13.79 2.03-20.34 2.82-8.39 7.46-23.03 10.2-36.17z"/>
			<path id="&lt;Path&gt;" class="s0" d="m1120.56 504.53c0.91 2.71 1.6 7.26 1.52 10.11l-0.61 22.87c-0.17 6.36-1.33 12.66-3.47 18.65-1.61 4.51-3.71 9.65-6.06 13.52-0.3 0.49-1.04 0.34-1.13-0.23-0.34-2.19-0.86-6.27-0.62-9.48 0.22-2.82 2.84-9.45 4.85-14.22 2.13-5.03 3.59-10.31 4.27-15.73 0.72-5.64 1.18-13.09 0.33-21.03l-0.48-4.14c-0.09-0.86 1.12-1.13 1.4-0.32z"/>
			<path id="&lt;Path&gt;" class="s0" d="m1095.26 531.52c-1.89 6.87-5.93 22.65-5.85 31.54 0.03 2.48 0.98 4.86 2.65 6.69l2.46 2.71c1.14 1.24 3.13 1.34 4.28 0.11 0.52-0.56 1.01-1.39 1.41-2.59 0.49-1.45 0.73-3.23 0.83-5.01 0.23-4.02-0.32-8.05-1.44-11.92-1.3-4.49-3.24-12.62-3.42-21.42-0.01-0.54-0.78-0.64-0.92-0.11z"/>
			<path id="&lt;Path&gt;" class="s0" d="m1090.5 574.14c0-0.26 0.35-0.32 0.43-0.08 0.72 2.12 2.29 6.33 4.37 9.53 0.28 0.43 0.09 1-0.37 1.2-0.56 0.23-0.87 0.83-0.74 1.42 0.13 0.66 0.33 1.59 0.56 2.64 0.09 0.43-0.49 0.66-0.72 0.28l-1.9-3.18c-1.07-1.78-1.63-3.81-1.63-5.88z"/>
			<path id="&lt;Path&gt;" class="s0" d="m1094.48 602.68c-0.08 2.03-0.38 5.36-1.36 8.71-1.36 4.71-2.2 9.57-2.17 14.47 0.04 3.87 0.4 8.33 1.5 12.53 0.32 1.21 1.78 1.7 2.78 0.95 2.5-1.89 6.29-6.52 6.23-17.16 0 0 0.72-9.99-5.78-19.82-0.35-0.53-1.17-0.3-1.2 0.32z"/>
			<path id="&lt;Path&gt;" class="s0" d="m1098.72 637.99c-0.79 1.08-1.9 2.29-3.37 3.1-0.79 0.44-1.17 1.37-0.94 2.24q0.1 0.38 0.21 0.82 1.6 6.1 2.35 12.36l0.57 4.82c0.06 0.52 0.81 0.54 0.88 0.02 0.52-3.57 1.29-10.66 1.63-22.91 0.02-0.73-0.91-1.04-1.33-0.45z"/>
			<path id="&lt;Path&gt;" class="s0" d="m1112.47 587.32c0.03-0.78 1.06-0.99 1.4-0.29 1.34 2.73 3.07 7.97 2.38 15.9 0 0-2.44 35.67-12.48 60.42-0.34 0.84-1.59 0.5-1.46-0.39l7.82-52.55c0 0 2.04-12.22 2.34-23.09z"/>
			<path id="&lt;Path&gt;" class="s0" d="m1117.09 606.05c0.18-0.73 1.27-0.59 1.24 0.17-0.38 9.09-1.93 31.17-8.2 46.67 0 0-3.7 10.94-4.88 17.62-0.08 0.47-0.77 0.44-0.82-0.03-0.16-1.69-0.17-3.86 0.48-5.71l3.15-10.16 1.99-7.53c2.43-9.19 4.67-18.47 5.74-27.91 0.57-5.03 0.2-8.75 1.3-13.12z"/>
			<path id="&lt;Path&gt;" class="s0" d="m1119.3 616.03c0.1-0.54 0.9-0.45 0.87 0.1-0.23 5.24-1.11 14.44-4.09 26.07 0 0-3.37 17.05-4.43 25.78-0.05 0.44-0.7 0.42-0.72-0.03-0.17-3.23-0.09-8.12 1.11-13.63 0 0 5.03-26.8 7.26-38.29z"/>
		</g>
	</g>
</svg>